<svg width="70" height="52" viewBox="0 0 70 52" fill="none" xmlns="http://www.w3.org/2000/svg">
<path d="M8.1454 10.1292C12.1478 -4.80788 27.5012 -13.6722 42.4383 -9.66981C57.3753 -5.66744 66.2396 9.68599 62.2372 24.623C58.2349 39.5601 42.8814 48.4244 27.9444 44.422C13.0073 40.4197 4.14303 25.0662 8.1454 10.1292Z" fill="#0284C7"/>
<path fill-rule="evenodd" clip-rule="evenodd" d="M38.9011 3.53129C39.2501 3.62479 39.5214 3.89925 39.611 4.24924L42.3672 15.0167L49.7821 12.1663C50.1778 12.0142 50.6264 12.1281 50.9016 12.4506C51.1767 12.773 51.2187 13.2339 51.0063 13.6008L42.0125 29.1357C41.7859 29.527 41.325 29.7176 40.8882 29.6006L24.1455 25.1144C23.7088 24.9973 23.4049 24.6018 23.4043 24.1496L23.3829 6.19909C23.3824 5.77519 23.6492 5.39702 24.0487 5.25538C24.4483 5.11373 24.8937 5.23939 25.1603 5.56895L30.1566 11.7449L37.9273 3.79808C38.1799 3.53977 38.5521 3.43779 38.9011 3.53129ZM38.1143 6.46744L30.801 13.9466C30.6014 14.1507 30.3241 14.2598 30.039 14.2464C29.7539 14.233 29.4881 14.0984 29.3085 13.8765L25.3863 9.02814L25.4034 23.3809L40.6656 27.4704L47.8568 15.0491L42.0359 17.2867C41.7695 17.3892 41.472 17.3728 41.2183 17.2419C40.9647 17.1109 40.7791 16.8778 40.7083 16.6013L38.1143 6.46744ZM33.1901 20.9811C33.3331 20.4476 33.8814 20.1311 34.4149 20.274L34.4278 20.2775C34.9612 20.4204 35.2778 20.9687 35.1349 21.5022C34.9919 22.0357 34.4436 22.3522 33.9101 22.2093L33.8973 22.2059C33.3638 22.0629 33.0472 21.5146 33.1901 20.9811ZM23.0471 27.9259C23.19 27.3924 23.7384 27.0758 24.2718 27.2188L39.7267 31.3599C40.2601 31.5028 40.5767 32.0511 40.4338 32.5846C40.2908 33.1181 39.7425 33.4347 39.209 33.2917L23.7542 29.1506C23.2207 29.0077 22.9042 28.4593 23.0471 27.9259Z" fill="white"/>
</svg>
