<svg width="49" height="48" viewBox="0 0 49 48" fill="none" xmlns="http://www.w3.org/2000/svg">
<path d="M0.9375 12C0.9375 5.37258 6.31008 0 12.9375 0H36.9375C43.5649 0 48.9375 5.37258 48.9375 12V36C48.9375 42.6274 43.5649 48 36.9375 48H12.9375C6.31008 48 0.9375 42.6274 0.9375 36V12Z" fill="#FDF4FF"/>
<path fill-rule="evenodd" clip-rule="evenodd" d="M15.1875 24C15.1875 18.6152 19.5527 14.25 24.9375 14.25C30.3223 14.25 34.6875 18.6152 34.6875 24C34.6875 29.3848 30.3223 33.75 24.9375 33.75C19.5527 33.75 15.1875 29.3848 15.1875 24ZM23.8937 22.5584C25.04 21.9853 26.3306 23.0206 26.0198 24.2639L25.3108 27.0999L25.3523 27.0792C25.7227 26.894 26.1732 27.0441 26.3585 27.4146C26.5437 27.7851 26.3936 28.2356 26.0231 28.4208L25.9816 28.4416C24.8354 29.0147 23.5447 27.9794 23.8556 26.7361L24.5646 23.9001L24.5231 23.9208C24.1526 24.1061 23.7021 23.9559 23.5168 23.5854C23.3316 23.2149 23.4818 22.7644 23.8523 22.5792L23.8937 22.5584ZM24.9375 21C25.3517 21 25.6875 20.6642 25.6875 20.25C25.6875 19.8358 25.3517 19.5 24.9375 19.5C24.5233 19.5 24.1875 19.8358 24.1875 20.25C24.1875 20.6642 24.5233 21 24.9375 21Z" fill="#C026D3"/>
</svg>
