<svg width="49" height="48" viewBox="0 0 49 48" fill="none" xmlns="http://www.w3.org/2000/svg">
<path d="M0.9375 12C0.9375 5.37258 6.31008 0 12.9375 0H36.9375C43.5649 0 48.9375 5.37258 48.9375 12V36C48.9375 42.6274 43.5649 48 36.9375 48H12.9375C6.31008 48 0.9375 42.6274 0.9375 36V12Z" fill="#FFF1F2"/>
<path fill-rule="evenodd" clip-rule="evenodd" d="M24.9375 18.75C24.9375 15.8505 27.288 13.5 30.1875 13.5C30.7166 13.5 31.2288 13.5785 31.7122 13.725C31.9645 13.8015 32.1581 14.0048 32.2222 14.2605C32.2863 14.5162 32.2114 14.7867 32.025 14.9731L28.7063 18.2918C28.768 18.7674 28.9813 19.2258 29.3465 19.591C29.7117 19.9562 30.1701 20.1695 30.6457 20.2312L33.9644 16.9125C34.1508 16.7261 34.4213 16.6512 34.677 16.7153C34.9327 16.7794 35.136 16.973 35.2125 17.2253C35.359 17.7087 35.4375 18.2209 35.4375 18.75C35.4375 21.6495 33.087 24 30.1875 24C30.037 24 29.8878 23.9936 29.7402 23.9812C28.723 23.8952 27.8713 24.0816 27.4319 24.6151L20.2808 33.2987C19.6543 34.0593 18.7206 34.5 17.7352 34.5C15.9139 34.5 14.4375 33.0236 14.4375 31.2023C14.4375 30.2169 14.8782 29.2832 15.6388 28.6567L24.3224 21.5056C24.8559 21.0662 25.0423 20.2145 24.9563 19.1973C24.9439 19.0497 24.9375 18.9005 24.9375 18.75ZM17.0547 31.125C17.0547 30.7108 17.3905 30.375 17.8047 30.375H17.8122C18.2264 30.375 18.5622 30.7108 18.5622 31.125V31.1325C18.5622 31.5468 18.2264 31.8825 17.8122 31.8825H17.8047C17.3905 31.8825 17.0547 31.5468 17.0547 31.1325V31.125Z" fill="#E11D48"/>
</svg>
