<svg width="48" height="48" viewBox="0 0 48 48" fill="none" xmlns="http://www.w3.org/2000/svg">
<path d="M0 12C0 5.37258 5.37258 0 12 0H36C42.6274 0 48 5.37258 48 12V36C48 42.6274 42.6274 48 36 48H12C5.37258 48 0 42.6274 0 36V12Z" fill="#F0F9FF"/>
<path fill-rule="evenodd" clip-rule="evenodd" d="M23.4843 14.1697C23.7735 13.8958 24.2265 13.8958 24.5157 14.1697C26.5325 16.0797 29.2538 17.25 32.25 17.25C32.2977 17.25 32.3453 17.2497 32.3928 17.2491C32.7202 17.245 33.0123 17.4538 33.1146 17.7648C33.5271 19.0196 33.75 20.3595 33.75 21.75C33.75 27.692 29.6859 32.683 24.1869 34.0983C24.0643 34.1299 23.9357 34.1299 23.8131 34.0983C18.3141 32.683 14.25 27.692 14.25 21.75C14.25 20.3595 14.4729 19.0196 14.8854 17.7648C14.9877 17.4538 15.2798 17.245 15.6072 17.2491C15.6547 17.2497 15.7023 17.25 15.75 17.25C18.7462 17.25 21.4675 16.0797 23.4843 14.1697ZM24 20.25C24.4142 20.25 24.75 20.5858 24.75 21V24.75C24.75 25.1642 24.4142 25.5 24 25.5C23.5858 25.5 23.25 25.1642 23.25 24.75V21C23.25 20.5858 23.5858 20.25 24 20.25ZM24 27C23.5858 27 23.25 27.3358 23.25 27.75V27.7575C23.25 28.1717 23.5858 28.5075 24 28.5075H24.0075C24.4217 28.5075 24.7575 28.1717 24.7575 27.7575V27.75C24.7575 27.3358 24.4217 27 24.0075 27H24Z" fill="#0284C7"/>
</svg>
