<svg width="48" height="48" viewBox="0 0 48 48" fill="none" xmlns="http://www.w3.org/2000/svg">
<path d="M0 12C0 5.37258 5.37258 0 12 0H36C42.6274 0 48 5.37258 48 12V36C48 42.6274 42.6274 48 36 48H12C5.37258 48 0 42.6274 0 36V12Z" fill="#F0FDFA"/>
<path d="M24.75 24.75C24.75 25.1642 24.4142 25.5 24 25.5C23.5858 25.5 23.25 25.1642 23.25 24.75C23.25 24.3358 23.5858 24 24 24C24.4142 24 24.75 24.3358 24.75 24.75Z" fill="#0D9488"/>
<path d="M19.5 27.75C19.9142 27.75 20.25 27.4142 20.25 27C20.25 26.5858 19.9142 26.25 19.5 26.25C19.0858 26.25 18.75 26.5858 18.75 27C18.75 27.4142 19.0858 27.75 19.5 27.75Z" fill="#0D9488"/>
<path d="M20.25 29.25C20.25 29.6642 19.9142 30 19.5 30C19.0858 30 18.75 29.6642 18.75 29.25C18.75 28.8358 19.0858 28.5 19.5 28.5C19.9142 28.5 20.25 28.8358 20.25 29.25Z" fill="#0D9488"/>
<path d="M21.75 27.75C22.1642 27.75 22.5 27.4142 22.5 27C22.5 26.5858 22.1642 26.25 21.75 26.25C21.3358 26.25 21 26.5858 21 27C21 27.4142 21.3358 27.75 21.75 27.75Z" fill="#0D9488"/>
<path d="M22.5 29.25C22.5 29.6642 22.1642 30 21.75 30C21.3358 30 21 29.6642 21 29.25C21 28.8358 21.3358 28.5 21.75 28.5C22.1642 28.5 22.5 28.8358 22.5 29.25Z" fill="#0D9488"/>
<path d="M24 27.75C24.4142 27.75 24.75 27.4142 24.75 27C24.75 26.5858 24.4142 26.25 24 26.25C23.5858 26.25 23.25 26.5858 23.25 27C23.25 27.4142 23.5858 27.75 24 27.75Z" fill="#0D9488"/>
<path d="M24.75 29.25C24.75 29.6642 24.4142 30 24 30C23.5858 30 23.25 29.6642 23.25 29.25C23.25 28.8358 23.5858 28.5 24 28.5C24.4142 28.5 24.75 28.8358 24.75 29.25Z" fill="#0D9488"/>
<path d="M26.25 27.75C26.6642 27.75 27 27.4142 27 27C27 26.5858 26.6642 26.25 26.25 26.25C25.8358 26.25 25.5 26.5858 25.5 27C25.5 27.4142 25.8358 27.75 26.25 27.75Z" fill="#0D9488"/>
<path d="M27 29.25C27 29.6642 26.6642 30 26.25 30C25.8358 30 25.5 29.6642 25.5 29.25C25.5 28.8358 25.8358 28.5 26.25 28.5C26.6642 28.5 27 28.8358 27 29.25Z" fill="#0D9488"/>
<path d="M28.5 27.75C28.9142 27.75 29.25 27.4142 29.25 27C29.25 26.5858 28.9142 26.25 28.5 26.25C28.0858 26.25 27.75 26.5858 27.75 27C27.75 27.4142 28.0858 27.75 28.5 27.75Z" fill="#0D9488"/>
<path d="M27 24.75C27 25.1642 26.6642 25.5 26.25 25.5C25.8358 25.5 25.5 25.1642 25.5 24.75C25.5 24.3358 25.8358 24 26.25 24C26.6642 24 27 24.3358 27 24.75Z" fill="#0D9488"/>
<path d="M28.5 25.5C28.9142 25.5 29.25 25.1642 29.25 24.75C29.25 24.3358 28.9142 24 28.5 24C28.0858 24 27.75 24.3358 27.75 24.75C27.75 25.1642 28.0858 25.5 28.5 25.5Z" fill="#0D9488"/>
<path fill-rule="evenodd" clip-rule="evenodd" d="M18.75 14.25C19.1642 14.25 19.5 14.5858 19.5 15V16.5H28.5V15C28.5 14.5858 28.8358 14.25 29.25 14.25C29.6642 14.25 30 14.5858 30 15V16.5H30.75C32.4069 16.5 33.75 17.8431 33.75 19.5V30.75C33.75 32.4069 32.4069 33.75 30.75 33.75H17.25C15.5931 33.75 14.25 32.4069 14.25 30.75V19.5C14.25 17.8431 15.5931 16.5 17.25 16.5H18V15C18 14.5858 18.3358 14.25 18.75 14.25ZM32.25 23.25C32.25 22.4216 31.5784 21.75 30.75 21.75H17.25C16.4216 21.75 15.75 22.4216 15.75 23.25V30.75C15.75 31.5784 16.4216 32.25 17.25 32.25H30.75C31.5784 32.25 32.25 31.5784 32.25 30.75V23.25Z" fill="#0D9488"/>
</svg>
