<svg width="77" height="64" viewBox="0 0 77 64" fill="none" xmlns="http://www.w3.org/2000/svg">
<path d="M14 24.2487C21.732 10.8565 38.8565 6.26801 52.2487 14C65.6409 21.732 70.2294 38.8565 62.4974 52.2487C54.7654 65.6409 37.6409 70.2294 24.2487 62.4974C10.8565 54.7654 6.26801 37.6409 14 24.2487Z" fill="#E11D48"/>
<path fill-rule="evenodd" clip-rule="evenodd" d="M45.4154 25.8356C45.7283 26.0163 45.9194 26.3516 45.9153 26.7129L45.7908 37.8268L53.6907 36.9927C54.1123 36.9482 54.5161 37.1743 54.6985 37.557C54.8808 37.9396 54.8021 38.3957 54.502 38.6951L41.7939 51.3729C41.4738 51.6922 40.9792 51.757 40.5876 51.5309L25.5765 42.8643C25.1849 42.6382 24.9938 42.1775 25.1103 41.7406L29.7355 24.3961C29.8447 23.9865 30.2003 23.6903 30.6229 23.6569C31.0455 23.6235 31.4432 23.8602 31.6155 24.2475L34.8431 31.5062L44.4057 25.8413C44.7166 25.6572 45.1025 25.655 45.4154 25.8356ZM43.8955 28.4681L34.8956 33.7996C34.65 33.9451 34.354 33.9787 34.082 33.892C33.8101 33.8052 33.5882 33.6064 33.4722 33.3456L30.9384 27.6473L27.2402 41.5154L40.9239 49.4157L51.085 39.2789L44.8832 39.9337C44.5994 39.9637 44.3162 39.871 44.1051 39.6788C43.894 39.4867 43.7751 39.2135 43.7783 38.9281L43.8955 28.4681ZM35.3827 41.2128C35.6589 40.7345 36.2704 40.5706 36.7487 40.8468L36.7603 40.8534C37.2386 41.1296 37.4025 41.7412 37.1263 42.2194C36.8502 42.6977 36.2386 42.8616 35.7603 42.5855L35.7487 42.5788C35.2704 42.3027 35.1066 41.6911 35.3827 41.2128ZM23.7878 45.2957C24.064 44.8174 24.6756 44.6535 25.1539 44.9297L39.0103 52.9297C39.4886 53.2058 39.6524 53.8174 39.3763 54.2957C39.1002 54.774 38.4886 54.9378 38.0103 54.6617L24.1539 46.6617C23.6756 46.3856 23.5117 45.774 23.7878 45.2957Z" fill="white"/>
</svg>
