<svg width="20" height="20" viewBox="0 0 20 20" fill="none" xmlns="http://www.w3.org/2000/svg">
<path d="M0 10C0 4.47715 4.47715 0 10 0C15.5228 0 20 4.47715 20 10C20 15.5228 15.5228 20 10 20C4.47715 20 0 15.5228 0 10Z" fill="#C026D3"/>
<path fill-rule="evenodd" clip-rule="evenodd" d="M10 4.625C10.1355 4.625 10.2604 4.69807 10.3269 4.81615L12.3703 8.44886L14.7795 6.69672C14.908 6.60323 15.0816 6.60094 15.2125 6.69103C15.3435 6.78111 15.4035 6.94399 15.3621 7.09749L13.6121 13.5975C13.568 13.7612 13.4196 13.875 13.25 13.875H6.75002C6.58046 13.875 6.432 13.7612 6.38792 13.5975L4.63792 7.09749C4.59659 6.94399 4.65654 6.78111 4.78751 6.69103C4.91849 6.60094 5.09203 6.60323 5.22059 6.69672L7.62978 8.44886L9.67318 4.81615C9.7396 4.69807 9.86455 4.625 10 4.625ZM10 5.7649L8.07686 9.18385C8.02439 9.27714 7.93454 9.34356 7.82996 9.36638C7.72538 9.3892 7.61603 9.36624 7.52946 9.30328L5.63817 7.92779L7.03742 13.125H12.9626L14.3619 7.92779L12.4706 9.30328C12.384 9.36624 12.2747 9.3892 12.1701 9.36638C12.0655 9.34356 11.9757 9.27714 11.9232 9.18385L10 5.7649ZM9.62502 11.5C9.62502 11.2929 9.79292 11.125 10 11.125H10.005C10.2121 11.125 10.38 11.2929 10.38 11.5C10.38 11.7071 10.2121 11.875 10.005 11.875H10C9.79292 11.875 9.62502 11.7071 9.62502 11.5ZM6.62502 15C6.62502 14.7929 6.79292 14.625 7.00002 14.625H13C13.2071 14.625 13.375 14.7929 13.375 15C13.375 15.2071 13.2071 15.375 13 15.375H7.00002C6.79292 15.375 6.62502 15.2071 6.62502 15Z" fill="white"/>
</svg>
