<svg width="70" height="70" viewBox="0 0 70 70" fill="none" xmlns="http://www.w3.org/2000/svg">
<path d="M8.0977 41.9983C4.09533 27.0613 12.9596 11.7078 27.8967 7.70546C42.8337 3.70309 58.1872 12.5674 62.1895 27.5044C66.1919 42.4415 57.3276 57.7949 42.3906 61.7973C27.4535 65.7997 12.1001 56.9354 8.0977 41.9983Z" fill="#C026D3"/>
<path fill-rule="evenodd" clip-rule="evenodd" d="M31.4339 20.9065C31.7829 20.813 32.1552 20.9149 32.4077 21.1732L40.1784 29.1201L45.1747 22.9441C45.4413 22.6146 45.8867 22.4889 46.2863 22.6305C46.6858 22.7722 46.9526 23.1504 46.9521 23.5743L46.9307 41.5248C46.9301 41.977 46.6262 42.3725 46.1895 42.4895L29.4468 46.9757C29.01 47.0928 28.5491 46.9021 28.3225 46.5108L19.3287 30.9759C19.1163 30.6091 19.1583 30.1482 19.4335 29.8257C19.7087 29.5033 20.1572 29.3894 20.5529 29.5415L27.9678 32.3919L30.724 21.6244C30.8136 21.2744 31.085 21 31.4339 20.9065ZM32.2207 23.8426L29.6267 33.9765C29.5559 34.253 29.3703 34.4861 29.1167 34.6171C28.8631 34.748 28.5655 34.7643 28.2991 34.6619L22.4782 32.4243L29.6694 44.8455L44.9316 40.756L44.9487 26.4033L41.0265 31.2516C40.847 31.4735 40.5811 31.6082 40.296 31.6216C40.0109 31.635 39.7336 31.5259 39.534 31.3218L32.2207 23.8426ZM35.213 38.8739C35.0701 38.3404 35.3867 37.7921 35.9201 37.6492L35.933 37.6457C36.4665 37.5028 37.0148 37.8194 37.1577 38.3528C37.3007 38.8863 36.9841 39.4346 36.4506 39.5776L36.4378 39.581C35.9043 39.724 35.356 39.4074 35.213 38.8739ZM29.9013 49.9598C29.7583 49.4263 30.0749 48.878 30.6084 48.735L46.0632 44.5939C46.5966 44.451 47.145 44.7676 47.2879 45.301C47.4309 45.8345 47.1143 46.3828 46.5808 46.5258L31.126 50.6669C30.5925 50.8098 30.0442 50.4932 29.9013 49.9598Z" fill="white"/>
</svg>
