<svg xmlns="http://www.w3.org/2000/svg" width="57" height="56" viewBox="0 0 57 56" fill="none">
  <path fill-rule="evenodd" clip-rule="evenodd" d="M21.6705 0.817209C23.8311 0.283068 26.0893 0 28.4119 0C30.7345 0 32.9928 0.283068 35.1534 0.817209C35.8505 0.989542 36.2758 1.69434 36.1035 2.39143C35.9312 3.08851 35.2264 3.51391 34.5293 3.34157C32.5713 2.85751 30.5225 2.60036 28.4119 2.60036C26.3013 2.60036 24.2526 2.85751 22.2946 3.34157C21.5975 3.51391 20.8927 3.08851 20.7203 2.39143C20.548 1.69434 20.9734 0.989542 21.6705 0.817209ZM41.0805 4.45525C41.4517 3.84055 42.2509 3.64313 42.8656 4.01431C46.7649 6.36884 50.0431 9.64697 52.3976 13.5463C52.7688 14.161 52.5714 14.9602 51.9567 15.3314C51.342 15.7026 50.5428 15.5051 50.1716 14.8904C48.0351 11.3523 45.0597 8.3768 41.5215 6.24033C40.9068 5.86915 40.7094 5.06995 41.0805 4.45525ZM15.7433 4.45525C16.1145 5.06995 15.9171 5.86916 15.3024 6.24033C11.7642 8.3768 8.78872 11.3523 6.65225 14.8904C6.28108 15.5051 5.48187 15.7026 4.86717 15.3314C4.25247 14.9602 4.05506 14.161 4.42623 13.5463C6.78077 9.64698 10.0589 6.36885 13.9582 4.01431C14.5729 3.64313 15.3721 3.84055 15.7433 4.45525ZM54.0205 20.3084C54.7176 20.1361 55.4224 20.5615 55.5947 21.2586C56.1289 23.4191 56.4119 25.6774 56.4119 28C56.4119 30.3226 56.1289 32.5809 55.5947 34.7414C55.4224 35.4385 54.7176 35.8639 54.0205 35.6916C53.3234 35.5193 52.898 34.8145 53.0703 34.1174C53.5544 32.1594 53.8116 30.1106 53.8116 28C53.8116 25.8894 53.5544 23.8406 53.0703 21.8826C52.898 21.1855 53.3234 20.4807 54.0205 20.3084ZM2.80335 20.3084C3.50044 20.4807 3.92583 21.1855 3.7535 21.8826C3.26944 23.8406 3.01229 25.8894 3.01229 28C3.01229 30.1106 3.26944 32.1594 3.7535 34.1174C3.92583 34.8145 3.50044 35.5193 2.80335 35.6916C2.10627 35.8639 1.40147 35.4385 1.22914 34.7414C0.694994 32.5809 0.411926 30.3226 0.411926 28C0.411926 25.6774 0.694994 23.4191 1.22914 21.2586C1.40147 20.5615 2.10627 20.1361 2.80335 20.3084ZM51.9567 40.6686C52.5714 41.0398 52.7688 41.839 52.3976 42.4537C50.0431 46.353 46.7649 49.6311 42.8656 51.9857C42.2509 52.3569 41.4517 52.1594 41.0805 51.5448C40.7094 50.93 40.9068 50.1308 41.5215 49.7597C45.0597 47.6232 48.0351 44.6477 50.1716 41.1095C50.5428 40.4948 51.342 40.2974 51.9567 40.6686ZM4.86717 40.6686C5.48187 40.2974 6.28108 40.4949 6.65226 41.1095C8.78872 44.6477 11.7642 47.6232 15.3024 49.7597C15.9171 50.1308 16.1145 50.93 15.7433 51.5448C15.3721 52.1594 14.5729 52.3569 13.9582 51.9857C10.0589 49.6312 6.78077 46.353 4.42623 42.4537C4.05506 41.839 4.25248 41.0398 4.86717 40.6686ZM20.7203 53.6086C20.8927 52.9115 21.5975 52.4861 22.2946 52.6584C24.2526 53.1425 26.3013 53.3996 28.4119 53.3996C30.5225 53.3996 32.5713 53.1425 34.5293 52.6584C35.2264 52.4861 35.9312 52.9115 36.1035 53.6086C36.2758 54.3057 35.8505 55.0105 35.1534 55.1828C32.9928 55.7169 30.7345 56 28.4119 56C26.0893 56 23.8311 55.7169 21.6705 55.1828C20.9734 55.0105 20.548 54.3057 20.7203 53.6086Z" fill="#C026D3"/>
  <path d="M20.2479 31.6284V24.3716H22.0621V31.6284H20.2479Z" fill="#C026D3"/>
  <path d="M23.8763 24.3716V31.6284H25.6905V24.3716H23.8763Z" fill="#C026D3"/>
  <path d="M27.5047 31.6284V24.3716H29.3189V31.6284H27.5047Z" fill="#C026D3"/>
  <path d="M31.1331 24.3716V31.6284H32.9473V24.3716H31.1331Z" fill="#C026D3"/>
  <path fill-rule="evenodd" clip-rule="evenodd" d="M16.3171 19.8361C15.8162 19.8361 15.41 20.2422 15.41 20.7432V35.2568C15.41 35.7578 15.8162 36.1639 16.3171 36.1639H36.878C37.379 36.1639 37.7851 35.7578 37.7851 35.2568V31.7904L41.4137 31.1776V24.8224L37.7851 24.2096V20.7432C37.7851 20.2422 37.379 19.8361 36.878 19.8361H16.3171ZM37.7851 26.0494V29.9505L39.5995 29.6441V26.3559L37.7851 26.0494ZM17.2242 34.3497V21.6503H35.9709V34.3497H17.2242Z" fill="#C026D3"/>
</svg>