<svg width="20" height="20" viewBox="0 0 20 20" fill="none" xmlns="http://www.w3.org/2000/svg">
<path fill-rule="evenodd" clip-rule="evenodd" d="M10.4473 0.0114746C6.21304 0.0114746 2.77914 3.44016 2.77914 7.67139V10.1875L1.01879 13.2255C0.848288 13.5198 0.873288 13.9254 1.15876 14.194C2.66136 15.608 5.74692 16.841 9.15265 17.1284C12.5852 17.4181 16.4956 16.7616 19.6219 14.2072C19.917 13.9661 20.0001 13.5452 19.8108 13.2085L18.1154 10.1924V7.67139C18.1154 3.44016 14.6815 0.0114746 10.4473 0.0114746ZM4.1732 7.67139C4.1732 4.21163 6.98141 1.40553 10.4473 1.40553C13.9131 1.40553 16.7213 4.21163 16.7213 7.67139V10.5573L18.3409 13.4385C15.6423 15.4436 12.3107 15.996 9.26988 15.7393C6.34398 15.4924 3.81299 14.5083 2.47868 13.4866L4.1732 10.5622V7.67139Z" fill="#262626"/>
<path d="M7.1963 18.9129C8.0616 19.5881 9.19045 19.9888 10.4132 19.9888C11.636 19.9888 12.7648 19.5881 13.6301 18.9129L12.7725 17.8139C12.1581 18.2933 11.3327 18.5947 10.4132 18.5947C9.49376 18.5947 8.66838 18.2934 8.05388 17.8139L7.1963 18.9129Z" fill="#262626"/>
</svg>
