<svg xmlns="http://www.w3.org/2000/svg" width="24" height="24" viewBox="0 0 24 24" fill="none">
  <path fill-rule="evenodd" clip-rule="evenodd" d="M15.2942 3.88574C15.3829 4.24086 15.167 4.60071 14.8119 4.68949C14.2289 4.83526 13.8162 5.10403 13.5383 5.36784C14.2461 5.66044 14.8115 6.22784 15.1015 6.93708L15.5816 6.72702C16.7195 6.2292 18.0495 6.66944 18.6657 7.74775L21.4127 12.5549C21.4699 12.655 21.5 12.7684 21.5 12.8837V18.186C21.5 19.5282 20.412 20.6163 19.0698 20.6163H4.93023C3.58806 20.6163 2.5 19.5282 2.5 18.186V12.8837C2.5 12.6204 2.65588 12.382 2.89713 12.2765L9.83918 9.23933C9.66633 8.87004 9.56977 8.45792 9.56977 8.02324C9.56977 6.58501 10.6269 5.3937 12.0065 5.18392C12.3733 4.54684 13.1598 3.73613 14.4904 3.40349C14.8455 3.31471 15.2054 3.53062 15.2942 3.88574ZM10.7022 10.3087L6.33133 12.2209H12.8837C13.2498 12.2209 13.5465 12.5177 13.5465 12.8837V15.093C13.5465 15.459 13.8433 15.7558 14.2093 15.7558C14.5753 15.7558 14.8721 15.459 14.8721 15.093V12.8837C14.8721 12.5177 15.1688 12.2209 15.5349 12.2209H19.6951L17.5148 8.40543C17.2347 7.91528 16.6301 7.71518 16.1129 7.94145L15.3011 8.29663C15.1634 9.75461 13.9359 10.8953 12.4419 10.8953C11.7879 10.8953 11.185 10.6768 10.7022 10.3087ZM20.1744 13.5465H16.1977V15.093C16.1977 16.1911 15.3074 17.0814 14.2093 17.0814C13.1112 17.0814 12.2209 16.1911 12.2209 15.093V13.5465H3.82558V15.7558H10.2326C10.5986 15.7558 10.8953 16.0525 10.8953 16.4186C10.8953 16.7846 10.5986 17.0814 10.2326 17.0814H3.82558V18.186C3.82558 18.7961 4.32014 19.2907 4.93023 19.2907H19.0698C19.6799 19.2907 20.1744 18.7961 20.1744 18.186V17.0814H18.186C17.82 17.0814 17.5233 16.7846 17.5233 16.4186C17.5233 16.0525 17.82 15.7558 18.186 15.7558H20.1744V13.5465ZM12.4419 6.47673C11.5878 6.47673 10.8953 7.16913 10.8953 8.02324C10.8953 8.87735 11.5878 9.56975 12.4419 9.56975C13.296 9.56975 13.9884 8.87735 13.9884 8.02324C13.9884 7.16913 13.296 6.47673 12.4419 6.47673Z" fill="#525252"/>
</svg>