<svg width="22" height="20" viewBox="0 0 22 20" fill="none" xmlns="http://www.w3.org/2000/svg">
<path fill-rule="evenodd" clip-rule="evenodd" d="M8.40123 2.00572C9.55572 0.00460559 12.4439 0.00460488 13.5983 2.00572L20.9527 14.7532C22.1065 16.7532 20.6631 19.2524 18.3541 19.2524H3.64546C1.33649 19.2524 -0.106939 16.7532 1.04691 14.7532L8.40123 2.00572ZM11 7.25232C11.4142 7.25232 11.75 7.58811 11.75 8.00232V11.7523C11.75 12.1665 11.4142 12.5023 11 12.5023C10.5858 12.5023 10.25 12.1665 10.25 11.7523V8.00232C10.25 7.58811 10.5858 7.25232 11 7.25232ZM11 15.5023C11.4142 15.5023 11.75 15.1665 11.75 14.7523C11.75 14.3381 11.4142 14.0023 11 14.0023C10.5858 14.0023 10.25 14.3381 10.25 14.7523C10.25 15.1665 10.5858 15.5023 11 15.5023Z" fill="#ffffff"/>
</svg>
