<svg xmlns="http://www.w3.org/2000/svg" width="24" height="24" viewBox="0 0 24 24" fill="none">
  <path fill-rule="evenodd" clip-rule="evenodd" d="M8.93079 5.54612C8.54542 6.11763 8.26817 6.95419 8.26817 8.14768C8.26817 10.5857 7.98852 11.9754 7.62573 12.9357C8.31453 13.1423 9.07478 13.3027 9.88754 13.4057C10.2166 13.4474 10.4633 13.7273 10.4633 14.059V15.9512C10.4633 16.2525 10.2589 16.5153 9.96687 16.5895L6.06864 17.5796C5.59258 17.7005 5.25479 18.1229 5.24164 18.614L5.213 19.6829H18.8048V18.6395C18.8048 18.1358 18.4621 17.6968 17.9735 17.5746C17.9735 17.5746 17.9735 17.5747 17.9735 17.5746L14.0353 16.5901C13.7421 16.5168 13.5365 16.2534 13.5365 15.9512V14.059C13.5365 13.7273 13.7832 13.4474 14.1122 13.4057C14.9309 13.302 15.6963 13.1399 16.3891 12.9311C16.0749 12.0499 15.7316 10.6455 15.7316 9.0116C15.7316 8.35758 15.7312 7.76222 15.6922 7.23077C15.6529 6.69551 15.577 6.27635 15.4508 5.96586C15.3304 5.66958 15.1784 5.50464 14.9881 5.411C14.7838 5.31047 14.4424 5.24657 13.8625 5.34162C13.6222 5.381 13.3799 5.28461 13.2323 5.091C13.0157 4.80687 12.6125 4.54796 12.0779 4.41225C11.5507 4.2784 10.9485 4.27926 10.3867 4.45616C9.83179 4.63089 9.31453 4.97703 8.93079 5.54612ZM14.0146 3.99509C13.5835 3.57792 13.0085 3.28962 12.402 3.13567C11.6534 2.94561 10.8013 2.9448 9.99112 3.1999C9.17407 3.45717 8.40169 3.97498 7.83879 4.80977C7.27751 5.64215 6.9511 6.74942 6.9511 8.14768C6.9511 11.1011 6.52345 12.2872 6.14451 13.0329C6.05936 13.2004 6.04986 13.3964 6.1184 13.5714C6.18693 13.7463 6.32697 13.8837 6.50325 13.9489C7.30165 14.244 8.19246 14.4747 9.14622 14.6293V15.439L5.74444 16.303C4.69709 16.569 3.95397 17.4984 3.92504 18.5787L3.87829 20.3238C3.87353 20.5015 3.94077 20.6735 4.06474 20.8008C4.18871 20.9282 4.35888 21 4.53659 21H19.4634C19.8271 21 20.1219 20.7052 20.1219 20.3415V18.6395C20.1219 17.5314 19.3678 16.5656 18.293 16.2969L14.8535 15.437V14.6293C15.8073 14.4747 16.6981 14.244 17.4965 13.9489C17.6728 13.8837 17.8128 13.7464 17.8814 13.5714C17.9499 13.3964 17.9404 13.2004 17.8553 13.0329C17.6077 12.5457 17.0487 10.9772 17.0487 9.0116V8.9966C17.0487 8.35968 17.0487 7.71863 17.0057 7.13426C16.9627 6.54911 16.874 5.96934 16.6709 5.46986C16.4621 4.95618 16.1201 4.50012 15.5696 4.22923C15.1235 4.00976 14.6016 3.94221 14.0146 3.99509Z" fill="#262626"/>
</svg>