<svg xmlns="http://www.w3.org/2000/svg" width="32" height="32" viewBox="0 0 32 32" fill="none">
<path fill-rule="evenodd" clip-rule="evenodd" d="M23.1414 4.12713C23.5335 4.37218 23.6527 4.8887 23.4076 5.2808L20.7612 9.51506C21.2121 9.97711 21.5468 10.5529 21.7188 11.1784L26.5196 5.41739C26.8156 5.06218 27.3435 5.01419 27.6988 5.31019C28.054 5.6062 28.102 6.13412 27.806 6.48932L22.416 12.9573C23.1825 13.4534 23.7713 14.2277 23.9951 15.1627H24.9302C25.1543 15.1627 25.369 15.2525 25.5263 15.412C25.6837 15.5715 25.7705 15.7875 25.7674 16.0115C25.6999 20.863 22.3119 23.2794 20.3863 24.256L20.7835 25.411C21.2197 26.6791 20.2774 27.9999 18.9361 27.9998C18.9361 27.9998 18.9361 27.9998 18.9361 27.9998L10.8437 27.9994C9.50761 27.9992 8.56567 26.6878 8.99277 25.4216C8.99276 25.4216 8.99277 25.4216 8.99277 25.4216L9.38522 24.258C7.46029 23.2828 4.06757 20.8664 4.00008 16.0115C3.99697 15.7875 4.08378 15.5715 4.24111 15.412C4.39844 15.2525 4.61315 15.1627 4.83721 15.1627H5.77051C6.04178 14.002 6.86482 13.0531 7.94956 12.6148C7.64381 10.4834 9.38436 8.44765 11.524 8.42135C12.6817 5.50371 17.0824 5.50282 18.2423 8.41845C18.6309 8.4207 19.0036 8.48845 19.3522 8.61017L21.9877 4.39336C22.2328 4.00126 22.7493 3.88207 23.1414 4.12713ZM13.1943 8.82188C13.6856 9.07632 14.1107 9.43968 14.4384 9.87894C14.715 10.2495 14.6387 10.7741 14.2681 11.0506C13.8975 11.3271 13.373 11.2509 13.0964 10.8803C12.8188 10.5081 12.416 10.2406 11.9556 10.1388C10.4885 9.81423 9.11976 11.4444 9.74996 12.8693C9.85768 13.1128 9.8431 13.3931 9.71071 13.6242C9.57831 13.8552 9.34389 14.0095 9.07931 14.0397C8.39576 14.1178 7.81543 14.5547 7.53287 15.1627H22.224C21.7787 14.259 20.6499 13.766 19.686 14.19C19.2627 14.3762 18.7687 14.1841 18.5825 13.7608C18.3963 13.3376 18.5885 12.8436 19.0117 12.6574C19.3881 12.4918 19.7748 12.3986 20.1589 12.3696C20.3285 11.1007 19.1331 9.8465 17.8118 10.1388C17.589 10.1881 17.3557 10.1443 17.166 10.0175C16.9762 9.89077 16.8464 9.69205 16.8066 9.46734C16.4813 7.63033 14.0199 7.41525 13.1943 8.82188ZM5.72982 16.8371C6.19146 20.7197 9.37006 22.4709 10.7402 23.0408C11.1464 23.2098 11.3525 23.6645 11.2119 24.0814L10.5794 25.9567C10.5184 26.1374 10.6528 26.3249 10.8438 26.325C10.8437 26.325 10.8438 26.325 10.8438 26.325L18.9362 26.3253C19.1277 26.3254 19.2624 26.1367 19.2001 25.9556L18.5571 24.0861C18.4134 23.6682 18.6192 23.2106 19.0273 23.0408C20.3974 22.4709 23.576 20.7197 24.0376 16.8371H5.72982Z" fill="#262626"/>
</svg>