<svg xmlns="http://www.w3.org/2000/svg" width="25" height="24" viewBox="0 0 25 24" fill="none">
<path fill-rule="evenodd" clip-rule="evenodd" d="M11.7577 3.60877C12.1509 3.35617 12.6558 3.35842 13.0467 3.61452L20.4432 8.46066C20.8422 8.72209 21.0453 9.19743 20.9585 9.66649L19.1196 19.6051C19.0158 20.1664 18.5262 20.5737 17.9553 20.5737H15.717C15.3246 20.5737 15.0066 20.8918 15.0066 21.2841C15.0066 21.6765 15.3246 21.9946 15.717 21.9946H17.9553C19.2112 21.9946 20.2883 21.0985 20.5168 19.8636L22.3557 9.92501C22.5466 8.89306 22.0997 7.84732 21.2218 7.27217L13.8254 2.42603C12.9655 1.86261 11.8546 1.85766 10.9897 2.41338L3.62162 7.14745C2.73573 7.71665 2.27965 8.7632 2.46583 9.7996L4.27236 19.8557C4.49554 21.098 5.57728 22.0016 6.8395 22L11.4413 21.9942C12.356 21.9931 13.0969 21.2513 13.0969 20.3366V18.2123H13.3291C13.8833 18.2123 14.4009 17.9353 14.7084 17.4742L16.1626 15.2929C16.3441 15.0206 16.441 14.7006 16.441 14.3734V11.8184C16.441 11.4261 16.1229 11.108 15.7305 11.108H15.0201V9.92394C15.0201 9.53158 14.702 9.2135 14.3097 9.2135C13.9173 9.2135 13.5992 9.53158 13.5992 9.92394V11.108H11.2311V9.92394C11.2311 9.53158 10.913 9.2135 10.5207 9.2135C10.1283 9.2135 9.81025 9.53158 9.81025 9.92394V11.108H9.09981C8.70745 11.108 8.38938 11.4261 8.38938 11.8184V14.3734C8.38938 14.7006 8.48625 15.0206 8.66778 15.2929L10.122 17.4742C10.4294 17.9353 10.947 18.2123 11.5013 18.2123H11.6761V20.3366C11.6761 20.4672 11.5702 20.5732 11.4395 20.5734L6.83773 20.5791C6.26399 20.5798 5.77229 20.1691 5.67084 19.6044L3.86432 9.54836C3.77969 9.07728 3.987 8.60157 4.38967 8.34285L11.7577 3.60877ZM9.81025 14.3734V12.5289H15.0201V14.3734C15.0201 14.4201 15.0063 14.4658 14.9803 14.5047L13.5261 16.686C13.4822 16.7519 13.4083 16.7915 13.3291 16.7915H11.5013C11.4221 16.7915 11.3481 16.7519 11.3042 16.686L9.85002 14.5047C9.82408 14.4658 9.81025 14.4201 9.81025 14.3734Z" fill="#737373"/>
</svg>