<svg xmlns="http://www.w3.org/2000/svg" width="25" height="24" viewBox="0 0 25 24" fill="none">
<path d="M13.8127 2.42603C12.9528 1.86261 11.8419 1.85766 10.977 2.41338L3.60891 7.14745C2.72303 7.71665 2.26695 8.7632 2.45313 9.79959L4.25966 19.8557C4.48284 21.098 5.56458 22.0016 6.8268 22L11.6919 21.9939V18.2124H11.4885C10.9342 18.2124 10.4167 17.9354 10.1092 17.4742L8.65501 15.2929C8.47348 15.0206 8.37661 14.7007 8.37661 14.3734V11.8185C8.37661 11.4261 8.69468 11.108 9.08704 11.108H9.79748V9.92398C9.79748 9.53161 10.1155 9.21354 10.5079 9.21354C10.9003 9.21354 11.2183 9.53161 11.2183 9.92398V11.108H13.5865V9.92398C13.5865 9.53161 13.9045 9.21354 14.2969 9.21354C14.6893 9.21354 15.0073 9.53161 15.0073 9.92398V11.108H15.7178C16.1101 11.108 16.4282 11.4261 16.4282 11.8185V14.3734C16.4282 14.7007 16.3313 15.0206 16.1498 15.2929L14.6956 17.4742C14.3882 17.9354 13.8706 18.2124 13.3163 18.2124H13.1127V21.9933L17.9426 21.9946C19.1985 21.9946 20.2756 21.0985 20.5041 19.8636L22.343 9.92501C22.5339 8.89306 22.087 7.84731 21.2091 7.27217L13.8127 2.42603Z" fill="#EA580CE5"/>
</svg>