<svg xmlns="http://www.w3.org/2000/svg" width="56" height="56" viewBox="0 0 56 56" fill="none">
<path fill-rule="evenodd" clip-rule="evenodd" d="M28 17.3322C27.9832 17.3322 27.9611 17.3366 27.9347 17.3539C26.9052 18.027 24.6371 19.6267 22.6366 21.8309C21.227 23.384 20.0072 25.1742 19.4008 27.102C21.4967 26.7543 24.7092 26.9844 28.4398 29.0799C32.323 31.261 35.4154 30.4507 36.8881 29.5943C36.9268 29.5718 36.9664 29.5524 37.0067 29.536C36.9612 26.6823 35.351 24.0209 33.3633 21.8309C31.3628 19.6267 29.0949 18.0271 28.0654 17.3539C28.039 17.3366 28.0168 17.3322 28 17.3322ZM36.7707 31.7213C34.6317 32.5627 31.3294 32.8497 27.5232 30.7118C23.6159 28.517 20.5061 28.673 19.0122 29.1034C18.999 29.2881 18.9923 29.4736 18.9923 29.66C18.9923 34.6348 23.0252 38.6677 28 38.6677C32.2655 38.6677 35.8386 35.7027 36.7707 31.7213ZM29.0897 15.7874C28.4232 15.3515 27.5768 15.3515 26.9103 15.7873L29.0897 15.7874ZM29.0897 15.7874C30.1824 16.5018 32.5974 18.2019 34.7494 20.573C36.8854 22.9265 38.8794 26.0706 38.8794 29.66C38.8794 35.6685 34.0085 40.5394 28 40.5394C21.9915 40.5394 17.1206 35.6685 17.1206 29.66C17.1206 26.0706 19.1146 22.9265 21.2506 20.573C23.4025 18.202 25.8175 16.5019 26.9103 15.7873" fill="#7C3AED"/>
<path fill-rule="evenodd" clip-rule="evenodd" d="M21.2586 0.817209C23.4191 0.283068 25.6774 0 28 0C30.3226 0 32.5808 0.283068 34.7414 0.817209C35.4385 0.989542 35.8639 1.69434 35.6916 2.39143C35.5193 3.08851 34.8145 3.51391 34.1174 3.34157C32.1594 2.85752 30.1106 2.60036 28 2.60036C25.8894 2.60036 23.8406 2.85752 21.8826 3.34157C21.1855 3.51391 20.4807 3.08851 20.3084 2.39143C20.1361 1.69434 20.5615 0.989542 21.2586 0.817209ZM40.6686 4.45525C41.0398 3.84055 41.839 3.64313 42.4537 4.01431C46.353 6.36884 49.6312 9.64698 51.9857 13.5463C52.3569 14.161 52.1595 14.9602 51.5448 15.3314C50.9301 15.7026 50.1308 15.5051 49.7597 14.8904C47.6232 11.3523 44.6477 8.3768 41.1095 6.24033C40.4948 5.86915 40.2974 5.06995 40.6686 4.45525ZM15.3314 4.45525C15.7026 5.06995 15.5051 5.86916 14.8904 6.24033C11.3523 8.3768 8.3768 11.3523 6.24033 14.8905C5.86915 15.5051 5.06995 15.7026 4.45525 15.3314C3.84055 14.9602 3.64313 14.161 4.01431 13.5463C6.36884 9.64698 9.64698 6.36885 13.5463 4.01431C14.161 3.64313 14.9602 3.84055 15.3314 4.45525ZM53.6086 20.3084C54.3057 20.1361 55.0105 20.5615 55.1828 21.2586C55.7169 23.4191 56 25.6774 56 28C56 30.3226 55.7169 32.5808 55.1828 34.7414C55.0105 35.4385 54.3057 35.8639 53.6086 35.6916C52.9115 35.5193 52.4861 34.8145 52.6584 34.1174C53.1425 32.1594 53.3996 30.1106 53.3996 28C53.3996 25.8894 53.1425 23.8406 52.6584 21.8826C52.4861 21.1855 52.9115 20.4807 53.6086 20.3084ZM2.39143 20.3084C3.08851 20.4807 3.51391 21.1855 3.34157 21.8826C2.85752 23.8406 2.60036 25.8894 2.60036 28C2.60036 30.1106 2.85752 32.1594 3.34157 34.1174C3.51391 34.8145 3.08851 35.5193 2.39143 35.6916C1.69434 35.8639 0.989542 35.4385 0.817209 34.7414C0.283068 32.5808 0 30.3226 0 28C0 25.6774 0.283068 23.4191 0.817209 21.2586C0.989542 20.5615 1.69434 20.1361 2.39143 20.3084ZM51.5448 40.6686C52.1595 41.0398 52.3569 41.839 51.9857 42.4537C49.6312 46.353 46.353 49.6312 42.4537 51.9857C41.839 52.3569 41.0398 52.1595 40.6686 51.5448C40.2974 50.9301 40.4949 50.1308 41.1095 49.7597C44.6477 47.6232 47.6232 44.6477 49.7597 41.1095C50.1308 40.4948 50.9301 40.2974 51.5448 40.6686ZM4.45525 40.6686C5.06995 40.2974 5.86916 40.4949 6.24033 41.1095C8.3768 44.6477 11.3523 47.6232 14.8905 49.7597C15.5051 50.1308 15.7026 50.9301 15.3314 51.5448C14.9602 52.1595 14.161 52.3569 13.5463 51.9857C9.64698 49.6312 6.36885 46.353 4.01431 42.4537C3.64313 41.839 3.84055 41.0398 4.45525 40.6686ZM20.3084 53.6086C20.4807 52.9115 21.1855 52.4861 21.8826 52.6584C23.8406 53.1425 25.8894 53.3996 28 53.3996C30.1106 53.3996 32.1594 53.1425 34.1174 52.6584C34.8145 52.4861 35.5193 52.9115 35.6916 53.6086C35.8639 54.3057 35.4385 55.0105 34.7414 55.1828C32.5808 55.7169 30.3226 56 28 56C25.6774 56 23.4191 55.7169 21.2586 55.1828C20.5615 55.0105 20.1361 54.3057 20.3084 53.6086Z" fill="#7C3AED"/>
</svg>