<svg xmlns="http://www.w3.org/2000/svg" width="24" height="24" viewBox="0 0 24 24" fill="none">
<path fill-rule="evenodd" clip-rule="evenodd" d="M3 12C3 6.98803 7.32017 3 12.5538 3C13.0243 3 13.4872 3.03206 13.9401 3.09412C14.3189 3.14602 14.584 3.49518 14.5321 3.87399C14.4802 4.2528 14.131 4.51782 13.7522 4.46592C13.3614 4.41238 12.9613 4.38462 12.5538 4.38462C7.99934 4.38462 4.38462 7.83555 4.38462 12C4.38462 16.1645 7.99934 19.6154 12.5538 19.6154C12.9613 19.6154 13.3614 19.5876 13.7522 19.5341C14.131 19.4822 14.4802 19.7472 14.5321 20.126C14.5839 20.5049 14.3189 20.854 13.9401 20.9059C13.4872 20.9679 13.0242 21 12.5538 21C7.32018 21 3 17.012 3 12ZM17.5105 9.20277C17.7808 8.93241 18.2192 8.93241 18.4895 9.20277L20.7972 11.5105C21.0676 11.7808 21.0676 12.2192 20.7972 12.4895L18.4895 14.7972C18.2192 15.0676 17.7808 15.0676 17.5105 14.7972C17.2401 14.5269 17.2401 14.0885 17.5105 13.8182L18.6363 12.6923H11.0769C10.6946 12.6923 10.3846 12.3824 10.3846 12C10.3846 11.6176 10.6946 11.3077 11.0769 11.3077H18.6363L17.5105 10.1818C17.2401 9.91148 17.2401 9.47314 17.5105 9.20277Z" fill="#B91C1C"/>
</svg>