<svg xmlns="http://www.w3.org/2000/svg" width="24" height="24" viewBox="0 0 24 24" fill="none">
  <path fill-rule="evenodd" clip-rule="evenodd" d="M8.83741 5.31043C8.22516 5.94883 7.82909 6.95474 7.82909 8.41472C7.82909 9.91243 8.08355 10.9572 8.4885 11.7551C8.89291 12.552 9.47307 13.154 10.2106 13.7312C10.37 13.856 10.4632 14.0473 10.4632 14.2498V15.9513C10.4632 16.2347 10.2818 16.4864 10.0129 16.576L5.9456 17.9317L5.73736 17.307L5.94559 17.9317C5.49743 18.0811 5.19512 18.5005 5.19512 18.973V19.6829H18.8048V18.973C18.8048 18.5006 18.5026 18.0812 18.0543 17.9317C18.0543 17.9317 18.0543 17.9317 18.0542 17.9317L13.9867 16.576C13.7178 16.4864 13.5364 16.2347 13.5364 15.9513V14.2498C13.5364 14.0473 13.6295 13.856 13.789 13.7312C14.5265 13.154 15.1067 12.552 15.5111 11.7551C15.916 10.9572 16.1705 9.91243 16.1705 8.41472C16.1705 7.40706 16.0728 6.57836 15.7803 6.0155C15.6421 5.74955 15.4667 5.55601 15.2419 5.42402C15.0148 5.2907 14.6944 5.19511 14.2287 5.19511C14.0449 5.19511 13.8696 5.1183 13.7451 4.98356C13.7438 4.98222 13.741 4.97949 13.7368 4.97548C13.7249 4.96413 13.7014 4.94266 13.6657 4.91421C13.5945 4.85737 13.4746 4.77262 13.3016 4.68481C12.9587 4.51082 12.3919 4.31706 11.554 4.31706C10.353 4.31706 9.4466 4.67522 8.83741 5.31043ZM5.52912 16.6822C5.52913 16.6822 5.52913 16.6822 5.52913 16.6822L9.14616 15.4766V14.565C8.42294 13.9656 7.78194 13.2732 7.31401 12.3512C6.79281 11.3241 6.51203 10.0632 6.51203 8.41472C6.51203 6.72267 6.97414 5.35048 7.88684 4.3988C8.8026 3.44392 10.0879 3 11.554 3C12.6048 3 13.3752 3.24526 13.8976 3.5103C14.1571 3.642 14.3519 3.77676 14.487 3.88455C14.4874 3.88487 14.4878 3.88519 14.4882 3.88551C15.0283 3.9172 15.503 4.05006 15.9087 4.28823C16.3804 4.56515 16.7157 4.95925 16.949 5.40825C17.3995 6.27529 17.4876 7.38566 17.4876 8.41472C17.4876 10.0633 17.2068 11.3241 16.6856 12.3512C16.2176 13.2732 15.5766 13.9656 14.8534 14.565V15.4766L18.4707 16.6822L18.4708 16.6822C19.4567 17.0109 20.1219 17.9335 20.1219 18.973V20.3415C20.1219 20.7052 19.827 21 19.4633 21H4.53658C4.17289 21 3.87805 20.7052 3.87805 20.3415V18.973C3.87805 17.9336 4.5431 17.0109 5.52912 16.6822Z" fill="#525252"/>
</svg>