<svg xmlns="http://www.w3.org/2000/svg" width="32" height="32" viewBox="0 0 32 32" fill="none">
<path fill-rule="evenodd" clip-rule="evenodd" d="M11.5349 6.79063C11.3808 6.79063 11.2558 6.91558 11.2558 7.0697V8.46517L20.7442 8.46536V7.0697C20.7442 6.91556 20.6193 6.79063 20.4651 6.79063H11.5349ZM22.4186 8.46539V7.0697C22.4186 5.99082 21.544 5.11621 20.4651 5.11621H11.5349C10.456 5.11621 9.5814 5.99082 9.5814 7.0697V8.46514L7.06983 8.46509C5.37441 8.46506 4 9.83944 4 11.5349V23.8139C4 25.5093 5.37439 26.8837 7.06977 26.8837H24.9302C26.6257 26.8837 28 25.5093 28 23.8139V11.5352C28 9.83983 26.6257 8.46547 24.9303 8.46544L22.4186 8.46539ZM7.0698 10.1395C6.29915 10.1395 5.67442 10.7642 5.67442 11.5349V23.8139C5.67442 24.5845 6.29913 25.2092 7.06977 25.2092H24.9302C25.7009 25.2092 26.3256 24.5845 26.3256 23.8139V11.5352C26.3256 10.7646 25.7009 10.1399 24.9302 10.1399L7.0698 10.1395ZM16 12.9302C16.4624 12.9302 16.8372 13.305 16.8372 13.7674V16.8371H19.907C20.3694 16.8371 20.7442 17.212 20.7442 17.6743C20.7442 18.1367 20.3694 18.5116 19.907 18.5116H16.8372V21.5813C16.8372 22.0437 16.4624 22.4185 16 22.4185C15.5376 22.4185 15.1628 22.0437 15.1628 21.5813V18.5116H12.093C11.6306 18.5116 11.2558 18.1367 11.2558 17.6743C11.2558 17.212 11.6306 16.8371 12.093 16.8371H15.1628V13.7674C15.1628 13.305 15.5376 12.9302 16 12.9302Z" fill="#262626"/>
</svg>