<svg xmlns="http://www.w3.org/2000/svg" width="20" height="20" viewBox="0 0 20 20" fill="none">
  <path fill-rule="evenodd" clip-rule="evenodd" d="M8.54163 4.16659C8.54163 3.36118 9.19452 2.70825 9.99996 2.70825C10.8054 2.70825 11.4583 3.36118 11.4583 4.16659C11.4583 4.97199 10.8054 5.62492 9.99996 5.62492C9.19452 5.62492 8.54163 4.97199 8.54163 4.16659Z" fill="#525252"/>
  <path fill-rule="evenodd" clip-rule="evenodd" d="M8.54163 9.99992C8.54163 9.19449 9.19453 8.54158 9.99996 8.54158C10.8054 8.54158 11.4583 9.19449 11.4583 9.99992C11.4583 10.8053 10.8054 11.4583 9.99996 11.4583C9.19453 11.4583 8.54163 10.8053 8.54163 9.99992Z" fill="#525252"/>
  <path fill-rule="evenodd" clip-rule="evenodd" d="M8.54163 15.8333C8.54163 15.0278 9.19453 14.3749 9.99996 14.3749C10.8054 14.3749 11.4583 15.0278 11.4583 15.8333C11.4583 16.6387 10.8054 17.2916 9.99996 17.2916C9.19453 17.2916 8.54163 16.6387 8.54163 15.8333Z" fill="#525252"/>
</svg>