<svg xmlns="http://www.w3.org/2000/svg" width="32" height="32" viewBox="0 0 32 32" fill="none">
<path fill-rule="evenodd" clip-rule="evenodd" d="M12.6981 5.91661C14.1762 3.36113 17.8236 3.36113 19.3017 5.91661L28.7 22.1651C30.1808 24.7252 28.3819 28 25.3982 28H6.6017C3.61803 28 1.8191 24.7252 3.2999 22.1651L12.6981 5.91661ZM17.6807 6.85422C16.9237 5.54545 15.0762 5.54545 14.3192 6.85422L4.92092 23.1027C4.1349 24.4616 5.11449 26.1274 6.6017 26.1274H25.3982C26.8854 26.1274 27.865 24.4616 27.079 23.1027L17.6807 6.85422Z" fill="#262626"/>
<path fill-rule="evenodd" clip-rule="evenodd" d="M14.5369 16.5852C14.5369 16.1004 14.9299 15.7074 15.4147 15.7074H15.9999C16.8079 15.7074 17.4629 16.3625 17.4629 17.1704V22.4372C17.4629 22.922 17.0699 23.315 16.5851 23.315C16.1003 23.315 15.7073 22.922 15.7073 22.4372V17.463H15.4147C14.9299 17.463 14.5369 17.07 14.5369 16.5852Z" fill="#262626"/>
<path fill-rule="evenodd" clip-rule="evenodd" d="M14.8295 13.074C14.8295 12.4276 15.3535 11.9036 15.9999 11.9036H16.0105C16.6569 11.9036 17.1809 12.4276 17.1809 13.074C17.1809 13.7204 16.6569 14.2444 16.0105 14.2444H15.9999C15.3535 14.2444 14.8295 13.7204 14.8295 13.074Z" fill="#262626"/>
</svg>