<svg xmlns="http://www.w3.org/2000/svg" width="24" height="25" viewBox="0 0 24 25" fill="none">
  <path d="M15 10.0947C15 7.33331 17.2386 5.09473 20 5.09473C20.5523 5.09473 21 4.64701 21 4.09473C21 3.54245 20.5523 3.09473 20 3.09473C16.134 3.09473 13 6.22874 13 10.0947V17.8447C13 19.3635 14.2312 20.5947 15.75 20.5947H19.75C21.2688 20.5947 22.5 19.3635 22.5 17.8447V13.8447C22.5 12.3259 21.2688 11.0947 19.75 11.0947H15.75C15.49 11.0947 15.2384 11.1308 15 11.1982V10.0947Z" fill="#F97316"/>
  <path d="M3 10.0947C3 7.33331 5.23858 5.09473 8 5.09473C8.55228 5.09473 9 4.64701 9 4.09473C9 3.54245 8.55228 3.09473 8 3.09473C4.13401 3.09473 1 6.22874 1 10.0947V17.8447C1 19.3635 2.23122 20.5947 3.75 20.5947H7.75C9.26878 20.5947 10.5 19.3635 10.5 17.8447V13.8447C10.5 12.3259 9.26878 11.0947 7.75 11.0947H3.75C3.48999 11.0947 3.23842 11.1308 3 11.1982V10.0947Z" fill="#F97316"/>
</svg>