<svg xmlns="http://www.w3.org/2000/svg" width="24" height="24" viewBox="0 0 24 24" fill="none">
<path fill-rule="evenodd" clip-rule="evenodd" d="M12.4913 1.42383C12.2067 1.19206 11.7933 1.19206 11.5087 1.42383L8.65238 3.75H4.32558C3.90174 3.75 3.55814 4.08579 3.55814 4.5V8.72846L1.17788 11.5199C0.940708 11.798 0.940708 12.202 1.17788 12.4801L3.55814 15.2715V19.5C3.55814 19.9142 3.90174 20.25 4.32558 20.25H8.65238L11.5087 22.5762C11.7933 22.8079 12.2067 22.8079 12.4913 22.5762L15.3476 20.25H19.6744C20.0983 20.25 20.4419 19.9142 20.4419 19.5V15.2715L22.8221 12.4801C23.0593 12.202 23.0593 11.798 22.8221 11.5199L20.4419 8.72847V4.5C20.4419 4.08579 20.0983 3.75 19.6744 3.75H15.3476L12.4913 1.42383ZM10.9767 14.5V16.5H13.0233V14.5H10.9767ZM13.0233 13V7.5H10.9767V13H13.0233Z" fill="#EA580CE5"/>
</svg>