<svg xmlns="http://www.w3.org/2000/svg" width="25" height="24" viewBox="0 0 25 24" fill="none">
<path d="M13.1444 13.0548V7.92151H11.6096V13.0548H13.1444Z" fill="#737373"/>
<path d="M11.6096 14.5949V16.1349H13.1444V14.5949H11.6096Z" fill="#737373"/>
<path fill-rule="evenodd" clip-rule="evenodd" d="M15.881 3.5095L13.0413 1.24447C12.6736 0.918189 12.118 0.918185 11.7504 1.24446L8.91067 3.5095H4.85333C4.31738 3.5095 3.88018 3.9435 3.88018 4.48223V8.53287L1.65498 11.3534C1.33058 11.7203 1.33058 12.2734 1.65498 12.6403L3.88018 15.4608V19.5287C3.88018 20.0675 4.31738 20.5015 4.85333 20.5015H8.97209L11.7657 22.7538C12.1376 23.0857 12.7032 23.0824 13.0714 22.744L15.6999 20.5015H19.9557C20.4916 20.5015 20.9288 20.0675 20.9288 19.5287V15.4793L23.1674 12.6587C23.4931 12.2914 23.4931 11.7368 23.1674 11.3695L20.9288 8.5489V4.48223C20.9288 3.9435 20.4916 3.5095 19.9557 3.5095H15.881ZM9.44779 5.04428L12.3958 2.69284L15.3439 5.04428H19.394V9.08393L21.7196 12.0141L19.394 14.9443V18.9667H15.1342L12.4034 21.2965L9.51374 18.9667H5.41496V14.9283L3.10225 11.9968L5.41496 9.0654V5.04428H9.44779Z" fill="#737373"/>
</svg>