<svg xmlns="http://www.w3.org/2000/svg" width="32" height="32" viewBox="0 0 32 32" fill="none">
<path fill-rule="evenodd" clip-rule="evenodd" d="M13.2083 12.381V13.4956C12.1327 13.8414 11.5497 14.7493 11.3883 15.395C11.3348 15.609 11.3066 15.8977 11.2889 16.1694C11.27 16.4592 11.2596 16.7934 11.2562 17.1299C11.2494 17.7954 11.2693 18.5169 11.3139 18.9632L11.3206 19.0304L11.338 19.0956C11.7008 20.4561 12.6589 21.0674 13.5736 21.254L13.6198 21.2635L13.6669 21.2677C14.2102 21.3159 16.1161 21.3093 17.137 21.3057L17.1391 21.3057C17.3382 21.305 17.5034 21.3045 17.6182 21.3044C18.2518 21.3152 18.9043 21.2041 19.4682 20.8319C20.0486 20.4488 20.4334 19.8569 20.6425 19.1039L20.6544 19.0612L20.6617 19.0175C20.7078 18.7408 20.7401 18.0228 20.7442 17.3445C20.7464 16.9911 20.7411 16.622 20.7237 16.2928C20.7073 15.981 20.6776 15.6471 20.6146 15.395L20.607 15.3645L20.5971 15.3347C20.2516 14.2916 19.5293 13.7412 18.8076 13.5029V12.381C18.8076 10.8348 17.5542 9.5814 16.008 9.5814C14.4618 9.5814 13.2083 10.8348 13.2083 12.381ZM16.008 11.2558C15.3865 11.2558 14.8828 11.7596 14.8828 12.381V13.3543H17.1332V12.381C17.1332 11.7596 16.6294 11.2558 16.008 11.2558ZM14.1428 15.0287C13.4122 15.0287 13.0775 15.542 13.0127 15.8011C12.9993 15.8549 12.9772 16.01 12.9598 16.2782C12.9435 16.5285 12.9338 16.8306 12.9305 17.1471C12.9244 17.7476 12.9418 18.358 12.9735 18.7264C13.0685 19.0431 13.2099 19.2318 13.3477 19.3516C13.4894 19.4748 13.6641 19.5569 13.8635 19.6036C14.3819 19.6398 16.0484 19.6345 17.0594 19.6314C17.289 19.6306 17.4848 19.63 17.6256 19.63L17.6413 19.6302C18.0767 19.6383 18.3587 19.558 18.5459 19.4344C18.7126 19.3244 18.89 19.1238 19.0152 18.7045C19.0362 18.5242 19.0659 17.9746 19.0698 17.3343C19.0719 17.0012 19.0667 16.667 19.0516 16.3809C19.0372 16.1066 19.0155 15.9221 18.9963 15.8281C18.777 15.2103 18.2932 15.0287 17.8935 15.0287H14.1428Z" fill="#262626"/>
<path fill-rule="evenodd" clip-rule="evenodd" d="M15.998 4C14.1212 4 12.5955 4.63398 11.2647 5.3234C10.8626 5.53174 10.489 5.73783 10.132 5.93476C9.25855 6.41658 8.48444 6.84361 7.63432 7.11485L7.60581 7.12395C7.10658 7.28323 6.6927 7.41528 6.37914 7.53815C6.08397 7.65381 5.73318 7.81231 5.48429 8.08893C5.26072 8.3374 5.14587 8.61634 5.06971 8.88316C5.00058 9.12537 4.94765 9.4191 4.89096 9.73369L4.8848 9.76786C3.50291 17.4319 6.52467 24.6925 13.9038 27.5177L13.9407 27.5318C14.6659 27.8095 15.1633 28 16.0017 28C16.8401 28 17.3376 27.8095 18.0631 27.5316L18.0995 27.5177C25.4784 24.6923 28.4971 17.4316 27.1149 9.76783L27.1087 9.73364C27.052 9.41899 26.9991 9.12522 26.9299 8.88298C26.8537 8.61614 26.7388 8.33717 26.5152 8.0887C26.2663 7.81208 25.9155 7.65363 25.6203 7.538C25.3067 7.41516 24.8928 7.28318 24.3935 7.12397L24.3652 7.11492C23.5145 6.84365 22.7398 6.41651 21.8657 5.93461C21.5086 5.73772 21.1348 5.53167 20.7326 5.3234C19.4012 4.63399 17.8748 4 15.998 4ZM8.14329 8.71004C9.16118 8.38527 10.1529 7.83813 11.0797 7.32677C11.4068 7.14633 11.7257 6.97034 12.035 6.81014C13.2758 6.16732 14.5173 5.67442 15.998 5.67442C17.4789 5.67442 18.721 6.16739 19.9627 6.81031C20.272 6.9705 20.5912 7.14648 20.9184 7.32691C21.8459 7.83831 22.8381 8.38544 23.8564 8.71018C24.3913 8.88074 24.7528 8.99646 25.0096 9.09708C25.1787 9.16331 25.2522 9.20516 25.2759 9.21905C25.2847 9.23687 25.3001 9.27367 25.3198 9.34263C25.3632 9.49458 25.402 9.70439 25.4671 10.065C26.7407 17.1269 23.9615 23.4801 17.5008 25.954C16.7593 26.2379 16.5156 26.3256 16.0017 26.3256C15.4877 26.3256 15.2442 26.2379 14.5025 25.954C8.04108 23.4801 5.25937 17.1266 6.53264 10.065C6.59766 9.70441 6.63647 9.49464 6.67983 9.34272C6.69951 9.27378 6.71488 9.237 6.72374 9.21918C6.74742 9.20529 6.82093 9.16342 6.99005 9.09715C7.24693 8.99649 7.60843 8.8807 8.14329 8.71004ZM6.72991 9.20787C6.73146 9.20605 6.73219 9.20488 6.73216 9.20475C6.73215 9.20467 6.73188 9.20496 6.73136 9.20568C6.731 9.20619 6.73051 9.20691 6.72991 9.20787Z" fill="#262626"/>
</svg>