<svg xmlns="http://www.w3.org/2000/svg" width="32" height="32" viewBox="0 0 32 32" fill="none">
<path fill-rule="evenodd" clip-rule="evenodd" d="M13.0976 4.33493C13.3751 3.96503 13.8998 3.89006 14.2697 4.16749L16 5.46516L17.7302 4.16749C18.1001 3.89006 18.6249 3.96503 18.9023 4.33493C19.1797 4.70483 19.1047 5.2296 18.7348 5.50702L17.3953 6.51167L27.6651 14.214C28.035 14.4914 28.1099 15.0162 27.8325 15.3861C27.5551 15.756 27.0303 15.8309 26.6604 15.5535L25.2092 14.4651V26.3256H26.0465C26.5088 26.3256 26.8837 26.7004 26.8837 27.1628C26.8837 27.6252 26.5088 28 26.0465 28H5.95347C5.4911 28 5.11626 27.6252 5.11626 27.1628C5.11626 26.7004 5.4911 26.3256 5.95347 26.3256H6.79068V14.4651L5.33952 15.5535C4.96962 15.8309 4.44486 15.756 4.16743 15.3861C3.89 15.0162 3.96497 14.4914 4.33487 14.214L14.6046 6.51167L13.2651 5.50702C12.8952 5.2296 12.8202 4.70483 13.0976 4.33493ZM16 7.55818L8.4651 13.2093V26.3256H12.3721V20.8372C12.3721 18.8829 14.0517 17.3954 16 17.3954C17.9482 17.3954 19.6279 18.8829 19.6279 20.8372V26.3256H23.5348V13.2093L16 7.55818ZM17.9534 26.3256V20.8372C17.9534 19.9146 17.1342 19.0698 16 19.0698C14.8658 19.0698 14.0465 19.9146 14.0465 20.8372V26.3256H17.9534Z" fill="#262626"/>
</svg>