<svg xmlns="http://www.w3.org/2000/svg" width="57" height="56" viewBox="0 0 57 56" fill="none">
<g clip-path="url(#clip0_1786_2228)">
<path fill-rule="evenodd" clip-rule="evenodd" d="M29.0902 22.864C29.0902 22.3368 28.6629 21.9094 28.1357 21.9094C27.6085 21.9094 27.1811 22.3368 27.1811 22.864V30.9503C25.7121 31.3658 24.6357 32.7164 24.6357 34.3185C24.6357 36.2516 26.2027 37.8185 28.1357 37.8185C30.0687 37.8185 31.6357 36.2516 31.6357 34.3185C31.6357 32.7164 30.5593 31.3658 29.0902 30.9503V22.864ZM26.5448 34.3185C26.5448 33.4399 27.257 32.7276 28.1357 32.7276C29.0144 32.7276 29.7266 33.4399 29.7266 34.3185C29.7266 35.1972 29.0144 35.9094 28.1357 35.9094C27.257 35.9094 26.5448 35.1972 26.5448 34.3185Z" fill="#E11D48"/>
<path fill-rule="evenodd" clip-rule="evenodd" d="M28.1357 14.2731C25.4998 14.2731 23.363 16.4099 23.363 19.0458L23.363 28.7707C21.8058 30.1116 20.8175 32.0998 20.8175 34.3185C20.8175 38.3603 24.094 41.6367 28.1357 41.6367C32.1774 41.6367 35.4539 38.3603 35.4539 34.3185C35.4539 32.0998 34.4654 30.1119 32.9084 28.7712V19.0458C32.9084 16.4099 30.7716 14.2731 28.1357 14.2731ZM25.2721 19.0458C25.2721 17.4643 26.5541 16.1822 28.1357 16.1822C29.7172 16.1822 30.9993 17.4643 30.9993 19.0458V29.2276C30.9993 29.5278 31.1405 29.8105 31.3806 29.9908C32.6965 30.9794 33.5448 32.5497 33.5448 34.3185C33.5448 37.3059 31.1231 39.7276 28.1357 39.7276C25.1483 39.7276 22.7266 37.3059 22.7266 34.3185C22.7266 32.5495 23.5748 30.9788 24.8908 29.9904C25.1308 29.8101 25.2721 29.5274 25.2721 29.2272L25.2721 19.0458Z" fill="#E11D48"/>
<path fill-rule="evenodd" clip-rule="evenodd" d="M21.5367 1.3461C23.6516 0.823233 25.8622 0.546143 28.1358 0.546143C30.4093 0.546143 32.6199 0.823233 34.7349 1.3461C35.4172 1.51479 35.8336 2.20471 35.6649 2.88707C35.4962 3.56944 34.8063 3.98585 34.124 3.81716C32.2073 3.34332 30.2018 3.0916 28.1358 3.0916C26.0697 3.0916 24.0642 3.34332 22.1476 3.81716C21.4652 3.98585 20.7753 3.56944 20.6066 2.88707C20.4379 2.20471 20.8543 1.51479 21.5367 1.3461ZM40.5369 4.90731C40.9002 4.3056 41.6825 4.11235 42.2842 4.47568C46.1012 6.7805 49.3102 9.98942 51.615 13.8064C51.9783 14.4081 51.7851 15.1905 51.1833 15.5538C50.5816 15.9171 49.7993 15.7239 49.436 15.1222C47.3446 11.6587 44.432 8.74606 40.9685 6.6547C40.3668 6.29137 40.1735 5.50903 40.5369 4.90731ZM15.7347 4.90731C16.098 5.50903 15.9047 6.29137 15.303 6.6547C11.8396 8.74606 8.92692 11.6587 6.83556 15.1222C6.47222 15.7239 5.68989 15.9171 5.08817 15.5538C4.48645 15.1905 4.29321 14.4081 4.65654 13.8064C6.96136 9.98942 10.1703 6.78051 13.9873 4.47569C14.589 4.11235 15.3713 4.3056 15.7347 4.90731ZM53.2036 20.4257C53.8859 20.257 54.5759 20.6734 54.7446 21.3558C55.2674 23.4708 55.5445 25.6814 55.5445 27.9549C55.5445 30.2284 55.2674 32.439 54.7446 34.554C54.5759 35.2364 53.8859 35.6528 53.2036 35.4841C52.5212 35.3154 52.1048 34.6255 52.2735 33.9431C52.7473 32.0264 52.9991 30.0209 52.9991 27.9549C52.9991 25.8889 52.7473 23.8834 52.2735 21.9667C52.1048 21.2843 52.5212 20.5944 53.2036 20.4257ZM3.06793 20.4257C3.7503 20.5944 4.16671 21.2843 3.99802 21.9667C3.52418 23.8834 3.27246 25.8889 3.27246 27.9549C3.27246 30.0209 3.52418 32.0264 3.99802 33.9431C4.16671 34.6255 3.7503 35.3154 3.06793 35.4841C2.38557 35.6528 1.69565 35.2364 1.52695 34.554C1.00409 32.439 0.727001 30.2284 0.727001 27.9549C0.727001 25.6814 1.00409 23.4708 1.52695 21.3558C1.69565 20.6734 2.38557 20.257 3.06793 20.4257ZM51.1833 40.356C51.7851 40.7193 51.9783 41.5017 51.615 42.1034C49.3102 45.9204 46.1012 49.1293 42.2843 51.4341C41.6825 51.7975 40.9002 51.6042 40.5369 51.0025C40.1735 50.4008 40.3668 49.6184 40.9685 49.2551C44.432 47.1637 47.3446 44.2511 49.436 40.7876C49.7993 40.1859 50.5816 39.9927 51.1833 40.356ZM5.08817 40.356C5.68989 39.9927 6.47223 40.1859 6.83556 40.7876C8.92692 44.2511 11.8396 47.1637 15.303 49.2551C15.9047 49.6184 16.098 50.4008 15.7347 51.0025C15.3713 51.6042 14.589 51.7975 13.9873 51.4341C10.1703 49.1293 6.96136 45.9204 4.65654 42.1034C4.29321 41.5017 4.48645 40.7193 5.08817 40.356ZM20.6066 53.0227C20.7753 52.3404 21.4652 51.924 22.1476 52.0926C24.0642 52.5665 26.0697 52.8182 28.1358 52.8182C30.2018 52.8182 32.2073 52.5665 34.124 52.0926C34.8063 51.924 35.4962 52.3404 35.6649 53.0227C35.8336 53.7051 35.4172 54.395 34.7349 54.5637C32.6199 55.0866 30.4093 55.3637 28.1358 55.3637C25.8622 55.3637 23.6516 55.0866 21.5367 54.5637C20.8543 54.395 20.4379 53.7051 20.6066 53.0227Z" fill="#E11D48"/>
</g>
<defs>
<clipPath id="clip0_1786_2228">
<rect width="56" height="56" fill="white" transform="translate(0.411926)"/>
</clipPath>
</defs>
</svg>