<svg xmlns="http://www.w3.org/2000/svg" width="24" height="24" viewBox="0 0 24 24" fill="none">
  <path fill-rule="evenodd" clip-rule="evenodd" d="M12.0005 8.02326C12.3473 8.02326 12.6284 8.30438 12.6284 8.65116V13.9704C13.5947 14.2437 14.3028 15.1322 14.3028 16.186C14.3028 17.4576 13.272 18.4884 12.0005 18.4884C10.7289 18.4884 9.69815 17.4576 9.69815 16.186C9.69815 15.1322 10.4062 14.2437 11.3726 13.9704V8.65116C11.3726 8.30438 11.6537 8.02326 12.0005 8.02326ZM12.0005 15.1395C11.4225 15.1395 10.954 15.608 10.954 16.186C10.954 16.764 11.4225 17.2326 12.0005 17.2326C12.5785 17.2326 13.047 16.764 13.047 16.186C13.047 15.608 12.5785 15.1395 12.0005 15.1395Z" fill="#525252"/>
  <path fill-rule="evenodd" clip-rule="evenodd" d="M8.86094 6.13953C8.86094 4.40563 10.2665 3 12.0005 3C13.7344 3 15.14 4.40563 15.14 6.13953V12.537C16.1642 13.4189 16.8144 14.7265 16.8144 16.186C16.8144 18.8447 14.6591 21 12.0005 21C9.34181 21 7.18652 18.8447 7.18652 16.186C7.18652 14.7265 7.83662 13.4187 8.86094 12.5366V6.13953ZM12.0005 4.25581C10.9601 4.25581 10.1168 5.09918 10.1168 6.13953V12.8369C10.1168 13.0344 10.0239 13.2203 9.86595 13.3389C9.00031 13.9891 8.44234 15.0224 8.44234 16.186C8.44234 18.1511 10.0354 19.7442 12.0005 19.7442C13.9656 19.7442 15.5586 18.1511 15.5586 16.186C15.5586 15.0225 15.0006 13.9895 14.135 13.3392C13.9771 13.2206 13.8842 13.0347 13.8842 12.8372V6.13953C13.8842 5.09918 13.0409 4.25581 12.0005 4.25581Z" fill="#525252"/>
</svg>