<svg xmlns="http://www.w3.org/2000/svg" width="57" height="56" viewBox="0 0 57 56" fill="none">
<g clip-path="url(#clip0_1786_2210)">
<path fill-rule="evenodd" clip-rule="evenodd" d="M25.5337 19.0458C25.5337 17.4643 26.8158 16.1822 28.3973 16.1822C29.9789 16.1822 31.261 17.4643 31.261 19.0458C31.261 19.7881 30.8487 20.6852 30.1862 21.429C29.8645 21.7903 29.5124 22.0816 29.1785 22.2771C28.8358 22.4777 28.5673 22.5458 28.3973 22.5458C28.2273 22.5458 27.9589 22.4777 27.6161 22.2771C27.2823 22.0816 26.9302 21.7903 26.6084 21.429C25.946 20.6852 25.5337 19.7881 25.5337 19.0458ZM28.3973 14.2731C25.7614 14.2731 23.6246 16.4099 23.6246 19.0458C23.6246 20.4122 24.3312 21.7424 25.1827 22.6987C25.6179 23.1874 26.1216 23.6144 26.6518 23.9247C27.1732 24.2298 27.7771 24.4549 28.3973 24.4549C29.0176 24.4549 29.6215 24.2298 30.1428 23.9247C30.673 23.6144 31.1767 23.1874 31.6119 22.6987C32.4635 21.7424 33.1701 20.4122 33.1701 19.0458C33.1701 16.4099 31.0332 14.2731 28.3973 14.2731ZM34.1681 23.419C33.7717 23.0714 33.1686 23.111 32.821 23.5074C32.4735 23.9038 32.5131 24.5069 32.9095 24.8545C34.6517 26.382 35.6427 28.8454 34.7252 31.028C34.6279 31.2596 34.4121 31.3963 34.1877 31.3963C34.1064 31.3963 34.0352 31.3929 33.9432 31.3885C33.8751 31.3853 33.7954 31.3815 33.6919 31.3781C33.4895 31.3716 33.2284 31.3694 32.9631 31.4075C32.6999 31.4452 32.3669 31.5311 32.0622 31.7485C31.7343 31.9823 31.5052 32.3215 31.4028 32.7389L30.0063 38.4342C29.817 39.2061 29.1445 39.7276 28.3951 39.7276C27.6456 39.7276 26.9731 39.2061 26.7838 38.4342L25.3873 32.7389C25.285 32.3215 25.0558 31.9823 24.728 31.7485C24.4232 31.5311 24.0903 31.4452 23.827 31.4075C23.5618 31.3694 23.3006 31.3716 23.0983 31.3781C22.9947 31.3815 22.9151 31.3853 22.847 31.3885C22.755 31.3929 22.6837 31.3963 22.6024 31.3963C22.3781 31.3963 22.1622 31.2596 22.0649 31.028C21.1475 28.8454 22.1384 26.3821 23.8807 24.8545C24.2771 24.5069 24.3167 23.9038 23.9692 23.5074C23.6216 23.111 23.0185 23.0714 22.6221 23.419C20.4877 25.2904 18.9666 28.5837 20.305 31.7677C20.6936 32.6924 21.5929 33.3054 22.6024 33.3054C22.7203 33.3054 22.8761 33.2984 23.0052 33.2926C23.0646 33.29 23.1184 33.2876 23.1601 33.2862C23.3336 33.2806 23.4602 33.2835 23.5559 33.2972L23.5587 33.2976L24.9296 38.8889C25.3228 40.4921 26.7433 41.6367 28.3951 41.6367C30.0468 41.6367 31.4674 40.4921 31.8605 38.8889L33.2315 33.2976L33.2342 33.2972C33.33 33.2835 33.4565 33.2806 33.63 33.2862C33.6717 33.2876 33.7253 33.29 33.7845 33.2926C33.9136 33.2984 34.0699 33.3054 34.1877 33.3054C35.1972 33.3054 36.0965 32.6924 36.4852 31.7677C37.8236 28.5837 36.3025 25.2904 34.1681 23.419Z" fill="#0D9488"/>
<path fill-rule="evenodd" clip-rule="evenodd" d="M21.7983 1.3461C23.9133 0.823233 26.1238 0.546143 28.3974 0.546143C30.6709 0.546143 32.8815 0.823233 34.9965 1.3461C35.6788 1.51479 36.0953 2.20471 35.9266 2.88707C35.7579 3.56944 35.068 3.98585 34.3856 3.81716C32.4689 3.34332 30.4634 3.0916 28.3974 3.0916C26.3314 3.0916 24.3259 3.34332 22.4092 3.81716C21.7268 3.98585 21.0369 3.56944 20.8682 2.88707C20.6995 2.20471 21.1159 1.51479 21.7983 1.3461ZM40.7985 4.90731C41.1618 4.3056 41.9442 4.11235 42.5459 4.47568C46.3629 6.7805 49.5718 9.98942 51.8766 13.8064C52.2399 14.4081 52.0467 15.1905 51.445 15.5538C50.8433 15.9171 50.0609 15.7239 49.6976 15.1222C47.6062 11.6587 44.6936 8.74606 41.2301 6.6547C40.6284 6.29137 40.4352 5.50903 40.7985 4.90731ZM15.9963 4.90731C16.3596 5.50903 16.1664 6.29137 15.5647 6.6547C12.1012 8.74606 9.18855 11.6587 7.09719 15.1222C6.73385 15.7239 5.95152 15.9171 5.3498 15.5538C4.74808 15.1905 4.55484 14.4081 4.91817 13.8064C7.22299 9.98942 10.4319 6.78051 14.2489 4.47569C14.8506 4.11235 15.633 4.3056 15.9963 4.90731ZM53.4652 20.4257C54.1476 20.257 54.8375 20.6734 55.0062 21.3558C55.5291 23.4708 55.8061 25.6814 55.8061 27.9549C55.8061 30.2284 55.5291 32.439 55.0062 34.554C54.8375 35.2364 54.1476 35.6528 53.4652 35.4841C52.7829 35.3154 52.3664 34.6255 52.5351 33.9431C53.009 32.0264 53.2607 30.0209 53.2607 27.9549C53.2607 25.8889 53.009 23.8834 52.5351 21.9667C52.3664 21.2843 52.7829 20.5944 53.4652 20.4257ZM3.32956 20.4257C4.01193 20.5944 4.42834 21.2843 4.25965 21.9667C3.78581 23.8834 3.53409 25.8889 3.53409 27.9549C3.53409 30.0209 3.78581 32.0264 4.25965 33.9431C4.42834 34.6255 4.01193 35.3154 3.32956 35.4841C2.6472 35.6528 1.95728 35.2364 1.78859 34.554C1.26572 32.439 0.988632 30.2284 0.988632 27.9549C0.988632 25.6814 1.26572 23.4708 1.78859 21.3558C1.95728 20.6734 2.6472 20.257 3.32956 20.4257ZM51.445 40.356C52.0467 40.7193 52.2399 41.5017 51.8766 42.1034C49.5718 45.9204 46.3629 49.1293 42.5459 51.4341C41.9442 51.7975 41.1618 51.6042 40.7985 51.0025C40.4352 50.4008 40.6284 49.6184 41.2301 49.2551C44.6936 47.1637 47.6062 44.2511 49.6976 40.7876C50.0609 40.1859 50.8433 39.9927 51.445 40.356ZM5.3498 40.356C5.95152 39.9927 6.73386 40.1859 7.09719 40.7876C9.18855 44.2511 12.1012 47.1637 15.5647 49.2551C16.1664 49.6184 16.3596 50.4008 15.9963 51.0025C15.633 51.6042 14.8506 51.7975 14.2489 51.4341C10.4319 49.1293 7.223 45.9204 4.91817 42.1034C4.55484 41.5017 4.74809 40.7193 5.3498 40.356ZM20.8682 53.0227C21.0369 52.3404 21.7268 51.924 22.4092 52.0926C24.3259 52.5665 26.3314 52.8182 28.3974 52.8182C30.4634 52.8182 32.4689 52.5665 34.3856 52.0926C35.068 51.924 35.7579 52.3404 35.9266 53.0227C36.0953 53.7051 35.6788 54.395 34.9965 54.5637C32.8815 55.0866 30.6709 55.3637 28.3974 55.3637C26.1238 55.3637 23.9133 55.0866 21.7983 54.5637C21.1159 54.395 20.6995 53.7051 20.8682 53.0227Z" fill="#0D9488"/>
</g>
<defs>
<clipPath id="clip0_1786_2210">
<rect width="56" height="56" fill="white" transform="translate(0.411926)"/>
</clipPath>
</defs>
</svg>