<svg xmlns="http://www.w3.org/2000/svg" width="25" height="24" viewBox="0 0 25 24" fill="none">
<path d="M18.314 3.14624C19.9439 3.14624 21.2651 4.46753 21.2651 6.09742C21.2651 7.72731 19.9439 9.04861 18.314 9.04861C16.684 9.04861 15.3628 7.72731 15.3628 6.09742C15.3628 4.46753 16.684 3.14624 18.314 3.14624Z" fill="#EA580CE5"/>
<path d="M18.3144 10.1217C19.9844 10.1217 21.4981 10.8092 22.6438 11.919C23.2016 12.4594 23.4119 13.2186 23.4119 13.8968V14.6826C23.4119 15.1271 23.0516 15.4874 22.6071 15.4874H17.043C16.541 15.1692 16.0038 14.9009 15.4385 14.69C16.5378 13.8048 17.2413 12.4478 17.2413 10.9265C17.2413 10.689 17.2241 10.4556 17.191 10.2273C17.5555 10.1579 17.9309 10.1217 18.3144 10.1217Z" fill="#EA580CE5"/>
<path d="M7.64627 17.253C8.92361 16.1532 10.5909 15.4876 12.4119 15.4876C14.2329 15.4876 15.9002 16.1532 17.1776 17.253C17.7967 17.7862 18.046 18.5558 18.046 19.2627V20.0485C18.046 20.493 17.6856 20.8534 17.2411 20.8534H7.5827C7.13819 20.8534 6.77783 20.493 6.77783 20.0485V19.2627C6.77783 18.5558 7.02715 17.7862 7.64627 17.253Z" fill="#EA580CE5"/>
<path d="M8.92419 10.9267C8.92419 9.00048 10.4857 7.43896 12.412 7.43896C14.3382 7.43896 15.8997 9.00048 15.8997 10.9267C15.8997 12.8529 14.3382 14.4145 12.412 14.4145C10.4857 14.4145 8.92419 12.8529 8.92419 10.9267Z" fill="#EA580CE5"/>
<path d="M6.50947 3.14624C4.87958 3.14624 3.55829 4.46753 3.55829 6.09742C3.55829 7.72731 4.87958 9.04861 6.50947 9.04861C8.13936 9.04861 9.46066 7.72731 9.46066 6.09742C9.46066 4.46753 8.13936 3.14624 6.50947 3.14624Z" fill="#EA580CE5"/>
<path d="M6.50942 10.1217C4.83944 10.1217 3.32576 10.8092 2.18012 11.919C1.62222 12.4594 1.41193 13.2186 1.41193 13.8968V14.6826C1.41193 15.1271 1.77228 15.4874 2.21679 15.4874H7.78091C8.2828 15.1692 8.82007 14.9009 9.38536 14.69C8.28602 13.8048 7.58258 12.4478 7.58258 10.9265C7.58258 10.689 7.59973 10.4556 7.63284 10.2273C7.26833 10.1579 6.893 10.1217 6.50942 10.1217Z" fill="#EA580CE5"/>
</svg>