<svg xmlns="http://www.w3.org/2000/svg" width="25" height="24" viewBox="0 0 25 24" fill="none">
<path fill-rule="evenodd" clip-rule="evenodd" d="M7.66994 17.3872C8.94089 16.2928 10.5997 15.6305 12.4118 15.6305C14.224 15.6305 15.8828 16.2928 17.1537 17.3872C17.7498 17.9004 17.9931 18.6444 17.9931 19.3346V20.1281C17.9931 20.5171 17.6777 20.8325 17.2887 20.8325C16.8996 20.8325 16.5842 20.5171 16.5842 20.1281V19.3346C16.5842 18.9533 16.4504 18.6407 16.2345 18.4549C15.2103 17.5729 13.875 17.0394 12.4118 17.0394C10.9487 17.0394 9.61344 17.5729 8.5892 18.4548C8.37332 18.6407 8.23942 18.9533 8.23942 19.3346V20.1281C8.23942 20.5171 7.92404 20.8325 7.53499 20.8325C7.14594 20.8325 6.83055 20.5171 6.83055 20.1281V19.3346C6.83055 18.6444 7.07393 17.9003 7.66994 17.3872Z" fill="#737373"/>
<path fill-rule="evenodd" clip-rule="evenodd" d="M12.4118 8.91132C11.3045 8.91132 10.4069 9.80896 10.4069 10.9162C10.4069 12.0235 11.3045 12.9212 12.4118 12.9212C13.5191 12.9212 14.4168 12.0235 14.4168 10.9162C14.4168 9.80896 13.5191 8.91132 12.4118 8.91132ZM8.99804 10.9162C8.99804 9.03086 10.5264 7.50246 12.4118 7.50246C14.2972 7.50246 15.8256 9.03086 15.8256 10.9162C15.8256 12.8016 14.2972 14.33 12.4118 14.33C10.5264 14.33 8.99804 12.8016 8.99804 10.9162Z" fill="#737373"/>
<path fill-rule="evenodd" clip-rule="evenodd" d="M17.668 10.9162C17.668 10.5272 17.9834 10.2118 18.3724 10.2118C20.0381 10.2118 21.5483 10.9015 22.6894 12.0162C23.2085 12.5233 23.4118 13.211 23.4118 13.8444V14.7094C23.4118 15.0984 23.0965 15.4138 22.7074 15.4138C22.3184 15.4138 22.003 15.0984 22.003 14.7094V13.8444C22.003 13.4932 21.8902 13.205 21.7049 13.024C20.8012 12.1411 19.6355 11.6207 18.3724 11.6207C17.9834 11.6207 17.668 11.3053 17.668 10.9162Z" fill="#737373"/>
<path fill-rule="evenodd" clip-rule="evenodd" d="M18.3724 4.57635C17.5644 4.57635 16.9094 5.23138 16.9094 6.0394C16.9094 6.84742 17.5644 7.50246 18.3724 7.50246C19.1804 7.50246 19.8355 6.84742 19.8355 6.0394C19.8355 5.23138 19.1804 4.57635 18.3724 4.57635ZM15.5005 6.0394C15.5005 4.45328 16.7863 3.16748 18.3724 3.16748C19.9585 3.16748 21.2443 4.45328 21.2443 6.0394C21.2443 7.62552 19.9585 8.91132 18.3724 8.91132C16.7863 8.91132 15.5005 7.62552 15.5005 6.0394Z" fill="#737373"/>
<path fill-rule="evenodd" clip-rule="evenodd" d="M2.13424 12.0162C3.27537 10.9015 4.78561 10.2118 6.45124 10.2118C6.84029 10.2118 7.15568 10.5272 7.15568 10.9162C7.15568 11.3053 6.84029 11.6207 6.45124 11.6207C5.18817 11.6207 4.0225 12.1411 3.11873 13.024C2.93342 13.205 2.8207 13.4931 2.8207 13.8444V14.7094C2.8207 15.0984 2.50532 15.4138 2.11627 15.4138C1.72722 15.4138 1.41183 15.0984 1.41183 14.7094V13.8444C1.41183 13.211 1.61505 12.5233 2.13424 12.0162Z" fill="#737373"/>
<path fill-rule="evenodd" clip-rule="evenodd" d="M6.45124 4.57635C5.64322 4.57635 4.98819 5.23138 4.98819 6.0394C4.98819 6.84742 5.64322 7.50246 6.45124 7.50246C7.25927 7.50246 7.9143 6.84742 7.9143 6.0394C7.9143 5.23138 7.25927 4.57635 6.45124 4.57635ZM3.57932 6.0394C3.57932 4.45328 4.86513 3.16748 6.45124 3.16748C8.03736 3.16748 9.32317 4.45328 9.32317 6.0394C9.32317 7.62552 8.03736 8.91132 6.45124 8.91132C4.86513 8.91132 3.57932 7.62552 3.57932 6.0394Z" fill="#737373"/>
</svg>