<svg xmlns="http://www.w3.org/2000/svg" width="57" height="56" viewBox="0 0 57 56" fill="none">
<g clip-path="url(#clip0_1786_2219)">
<path d="M24.1328 19.6212C24.1328 18.8458 24.7788 18.1875 25.6127 18.1875C26.4466 18.1875 27.0926 18.8458 27.0926 19.6212C27.0926 19.8803 27.0224 20.1216 26.899 20.3308C26.6679 20.7226 26.1869 21.1668 25.459 21.5448C24.7429 21.9167 23.8436 22.1944 22.855 22.2926C20.8852 22.4883 18.62 21.9688 16.763 20.148C16.4128 19.8047 15.8506 19.8102 15.5073 20.1604C15.164 20.5105 15.1695 21.0727 15.5197 21.4161C17.8064 23.6582 20.6175 24.2995 23.0306 24.0598C24.2334 23.9403 25.3522 23.6014 26.2775 23.1208C27.191 22.6464 27.9748 22.0023 28.4285 21.2332C28.7081 20.7595 28.8685 20.2078 28.8685 19.6212C28.8685 17.8322 27.3942 16.4116 25.6127 16.4116C23.8312 16.4116 22.3569 17.8322 22.3569 19.6212C22.3569 20.1116 22.7545 20.5092 23.2449 20.5092C23.7353 20.5092 24.1328 20.1116 24.1328 19.6212Z" fill="#0284C7"/>
<path d="M34.7883 24.318C34.7883 22.757 35.8424 21.7393 36.8602 21.7393C37.878 21.7393 38.932 22.757 38.932 24.318C38.932 24.9864 38.7267 25.582 38.4055 26.0296C38.3928 26.0473 38.3808 26.0654 38.3695 26.0839C37.937 26.7908 37.0073 27.3651 35.5294 27.7457C34.0757 28.1201 32.2472 28.2663 30.2498 28.2496C26.2614 28.2162 21.7806 27.5363 18.6842 26.9142C18.2034 26.8176 17.7354 27.129 17.6388 27.6098C17.5422 28.0906 17.8536 28.5587 18.3344 28.6553C21.4849 29.2883 26.0885 29.9907 30.235 30.0254C32.3051 30.0428 34.3066 29.8944 35.9723 29.4655C37.6017 29.0458 39.0711 28.3156 39.8671 27.0387C40.3994 26.2851 40.7079 25.3356 40.7079 24.318C40.7079 22.0499 39.1117 19.9634 36.8602 19.9634C34.6086 19.9634 33.0124 22.0499 33.0124 24.318C33.0124 24.8084 33.41 25.206 33.9003 25.206C34.3907 25.206 34.7883 24.8084 34.7883 24.318Z" fill="#0284C7"/>
<path d="M33.2496 35.2044C32.7517 34.2492 31.8104 33.4641 30.6625 32.8983C29.4992 32.3249 28.0571 31.9419 26.4549 31.8339C23.2434 31.6174 19.3346 32.5012 15.6124 35.2624C15.2185 35.5546 15.136 36.1107 15.4282 36.5046C15.7204 36.8984 16.2765 36.9809 16.6704 36.6887C20.0516 34.1805 23.5424 33.4175 26.3355 33.6058C27.7356 33.7002 28.9471 34.0326 29.8774 34.4911C30.8206 34.9561 31.4113 35.5174 31.6764 36.0283L31.6829 36.0407C31.773 36.2079 31.8284 36.4103 31.8284 36.6342C31.8284 37.3267 31.344 37.7223 30.9404 37.7223C30.6158 37.7223 30.2584 37.4853 30.1119 37.0241C29.9634 36.5567 29.4642 36.2981 28.9968 36.4466C28.5294 36.5951 28.2709 37.0943 28.4193 37.5617C28.7604 38.6354 29.7186 39.4982 30.9404 39.4982C32.4984 39.4982 33.6042 38.1244 33.6042 36.6342C33.6042 36.1186 33.4771 35.629 33.2496 35.2044Z" fill="#0284C7"/>
<path d="M36.268 31.2107C35.7776 31.2107 35.3801 31.6082 35.3801 32.0986C35.3801 32.589 35.7776 32.9866 36.268 32.9866H38.6359C39.1263 32.9866 39.5238 32.589 39.5238 32.0986C39.5238 31.6082 39.1263 31.2107 38.6359 31.2107H36.268Z" fill="#0284C7"/>
<path fill-rule="evenodd" clip-rule="evenodd" d="M21.3816 1.3461C23.4966 0.823233 25.7072 0.546143 27.9807 0.546143C30.2543 0.546143 32.4648 0.823233 34.5798 1.3461C35.2622 1.51479 35.6786 2.20471 35.5099 2.88707C35.3412 3.56944 34.6513 3.98585 33.9689 3.81716C32.0522 3.34332 30.0467 3.0916 27.9807 3.0916C25.9147 3.0916 23.9092 3.34332 21.9925 3.81716C21.3101 3.98585 20.6202 3.56944 20.4515 2.88707C20.2828 2.20471 20.6992 1.51479 21.3816 1.3461ZM40.3818 4.90731C40.7451 4.3056 41.5275 4.11235 42.1292 4.47568C45.9462 6.7805 49.1551 9.98942 51.4599 13.8064C51.8233 14.4081 51.63 15.1905 51.0283 15.5538C50.4266 15.9171 49.6442 15.7239 49.2809 15.1222C47.1896 11.6587 44.2769 8.74606 40.8134 6.6547C40.2117 6.29137 40.0185 5.50903 40.3818 4.90731ZM15.5796 4.90731C15.9429 5.50903 15.7497 6.29137 15.148 6.6547C11.6845 8.74606 8.77186 11.6587 6.68051 15.1222C6.31717 15.7239 5.53484 15.9171 4.93312 15.5538C4.3314 15.1905 4.13815 14.4081 4.50149 13.8064C6.80631 9.98942 10.0152 6.78051 13.8322 4.47569C14.4339 4.11235 15.2163 4.3056 15.5796 4.90731ZM53.0485 20.4257C53.7309 20.257 54.4208 20.6734 54.5895 21.3558C55.1124 23.4708 55.3895 25.6814 55.3895 27.9549C55.3895 30.2284 55.1124 32.439 54.5895 34.554C54.4208 35.2364 53.7309 35.6528 53.0485 35.4841C52.3662 35.3154 51.9498 34.6255 52.1185 33.9431C52.5923 32.0264 52.844 30.0209 52.844 27.9549C52.844 25.8889 52.5923 23.8834 52.1185 21.9667C51.9498 21.2843 52.3662 20.5944 53.0485 20.4257ZM2.91288 20.4257C3.59525 20.5944 4.01166 21.2843 3.84296 21.9667C3.36913 23.8834 3.1174 25.8889 3.1174 27.9549C3.1174 30.0209 3.36913 32.0264 3.84296 33.9431C4.01166 34.6255 3.59525 35.3154 2.91288 35.4841C2.23052 35.6528 1.5406 35.2364 1.3719 34.554C0.84904 32.439 0.571949 30.2284 0.571949 27.9549C0.571949 25.6814 0.84904 23.4708 1.3719 21.3558C1.5406 20.6734 2.23052 20.257 2.91288 20.4257ZM51.0283 40.356C51.63 40.7193 51.8233 41.5017 51.4599 42.1034C49.1551 45.9204 45.9462 49.1293 42.1292 51.4341C41.5275 51.7975 40.7451 51.6042 40.3818 51.0025C40.0185 50.4008 40.2117 49.6184 40.8134 49.2551C44.2769 47.1637 47.1896 44.2511 49.2809 40.7876C49.6442 40.1859 50.4266 39.9927 51.0283 40.356ZM4.93312 40.356C5.53484 39.9927 6.31717 40.1859 6.68051 40.7876C8.77186 44.2511 11.6845 47.1637 15.148 49.2551C15.7497 49.6184 15.9429 50.4008 15.5796 51.0025C15.2163 51.6042 14.4339 51.7975 13.8322 51.4341C10.0152 49.1293 6.80631 45.9204 4.50149 42.1034C4.13815 41.5017 4.3314 40.7193 4.93312 40.356ZM20.4515 53.0227C20.6202 52.3404 21.3101 51.924 21.9925 52.0926C23.9092 52.5665 25.9147 52.8182 27.9807 52.8182C30.0467 52.8182 32.0522 52.5665 33.9689 52.0926C34.6513 51.924 35.3412 52.3404 35.5099 53.0227C35.6786 53.7051 35.2622 54.395 34.5798 54.5637C32.4648 55.0866 30.2543 55.3637 27.9807 55.3637C25.7072 55.3637 23.4966 55.0866 21.3816 54.5637C20.6993 54.395 20.2828 53.7051 20.4515 53.0227Z" fill="#0284C7"/>
</g>
<defs>
<clipPath id="clip0_1786_2219">
<rect width="56" height="56" fill="white" transform="translate(0.411926)"/>
</clipPath>
</defs>
</svg>