<svg width="22" height="22" viewBox="0 0 22 22" fill="none" xmlns="http://www.w3.org/2000/svg">
<path fill-rule="evenodd" clip-rule="evenodd" d="M11 5.75684C11 2.85734 13.3505 0.506836 16.25 0.506836C16.7791 0.506836 17.2913 0.585354 17.7747 0.731883C18.027 0.808343 18.2206 1.01163 18.2847 1.26732C18.3488 1.52301 18.2739 1.79358 18.0875 1.97997L14.7688 5.29867C14.8305 5.77425 15.0438 6.23265 15.409 6.59783C15.7742 6.963 16.2326 7.17631 16.7082 7.238L20.0269 3.91931C20.2133 3.73291 20.4838 3.65806 20.7395 3.72214C20.9952 3.78622 21.1985 3.97982 21.275 4.23209C21.4215 4.71554 21.5 5.2277 21.5 5.75684C21.5 8.65633 19.1495 11.0068 16.25 11.0068C16.0995 11.0068 15.9503 11.0005 15.8027 10.988C14.7855 10.902 13.9338 11.0885 13.4944 11.622L6.34327 20.3055C5.71684 21.0662 4.78308 21.5068 3.79769 21.5068C1.97642 21.5068 0.5 20.0304 0.5 18.2092C0.5 17.2238 0.940666 16.29 1.70132 15.6636L10.3849 8.51241C10.9184 8.07306 11.1048 7.22136 11.0188 6.20412C11.0064 6.05652 11 5.90733 11 5.75684ZM3.11723 18.1319C3.11723 17.7177 3.45302 17.3819 3.86723 17.3819H3.87473C4.28895 17.3819 4.62473 17.7177 4.62473 18.1319V18.1394C4.62473 18.5536 4.28895 18.8894 3.87473 18.8894H3.86723C3.45302 18.8894 3.11723 18.5536 3.11723 18.1394V18.1319Z" fill="#ffffff"/>
</svg>
